<?xml version="1.0" encoding="utf-8"?>
<!-- Generator: Adobe Illustrator 23.0.1, SVG Export Plug-In . SVG Version: 6.00 Build 0)  -->
<svg version="1.1" xmlns="http://www.w3.org/2000/svg" xmlns:xlink="http://www.w3.org/1999/xlink" x="0px" y="0px"
	 viewBox="0 0 1164.2 1164.2" style="enable-background:new 0 0 1164.2 1164.2;" xml:space="preserve">
<style type="text/css">
	.st0{fill:#DAD6EA;}
	.st1{fill:none;stroke:#000000;stroke-miterlimit:10;}
	.st2{fill:#174940;}
	.st3{fill:#A52B10;}
	.st4{fill:none;stroke:#4B726B;stroke-width:3;stroke-miterlimit:10;}
	.st5{fill:#B75540;}
	.st6{fill:#841C0B;}
	.st7{fill:#E2AFA6;}
</style>
<g id="Layer_2">
	<circle class="st0" cx="582.1" cy="582.1" r="570.6"/>
</g>
<g id="Layer_1">
	<g id="Layer_3">
		<path class="st1" d="M672.2,646.1"/>
		<g>
			<g>
				<path class="st2" d="M298.4,535.9c-6.1,6.4-5.7,18.6-6.7,26.9c-0.5,4.6-0.9,9.2-1.2,13.8c-0.5,5.6-1.3,10.3,1,15.6
					c3.4,7.8,17,2.2,13.8-5.8c-0.5-1.3,2-7.7,3-10.3c1.5-4.3,3.5-8.5,5.6-12.6c2-3.8,4.6-7.5,7.4-10.8c1.8-2,10-9.7,11.7-3.2
					c0.3,1-0.4,3.8-0.5,5c-0.1,2.2-0.5,4.3-0.9,6.4c-0.7,4.4-1.3,8.9-1.8,13.3c-1.1,9.3-2.5,19.6-1.6,29c0.7,7.9,13.1,11,14.9,2
					c2.5-12.4,2.1-26.2,1.7-38.7c-0.3-9.2-0.8-20.6-11.5-23.4c-8.8-2.3-15,6.1-19.5,12.2c-3.5,4.7-7.3,9.2-10.7,13.9
					c-1.5,2.1-3.1,4.2-4.6,6.4c-1.1,1.6-3.3,5.7-4.4,6.2c3.5,3.5,6.9,6.9,10.4,10.4c2.6-4.2,2.3-8.9,2.6-13.7
					c0.3-4.9,0.8-9.8,0.9-14.8c0.2-7.9,2.4-20.1-2.4-26.9C304,534.5,300.6,533.6,298.4,535.9L298.4,535.9z"/>
			</g>
		</g>
		<g>
			<g>
				<path class="st2" d="M341,602.4c8.5-16.7,16.3-33.6,25.4-49.9c1.6-2.9,3.3-7.4,6-9.5c6.1-4.6,3.3,6.6,2.9,9.2
					c-1.4,9.5-2,19-2.8,28.6c-0.8,9.5-1.5,19-2.1,28.5c-0.5,8.6-2.2,18.2,1.1,26.5c2.9,7.2,9.6,12.4,17.7,11.3
					c8.4-1.2,13.1-7.8,17.2-14.5c5-8.1,9.6-16.6,14.1-25c4.5-8.2,9.3-16.5,9.9-26c0.1-1-1.3-1.5-1.9-0.8c-5.5,6.3-8.5,13.8-12.4,21
					c-4.3,7.9-9.2,15.2-14.9,22.1c-2.3,2.8-12.4,14.9-15.2,6.7c-1.2-3.5-0.1-8,0.2-11.6c0.4-4.9,0.8-9.8,1.1-14.8
					c0.7-9.5,1.2-19,1.7-28.5c0.5-9.1,2.2-19.1,0.5-28.1c-1.3-6.6-5.6-13.5-13-13.8c-6.6-0.3-11.2,4.8-13.6,10.4
					c-4.1,9.4-6.7,19.4-10.8,28.8c-4.2,9.6-8.2,19.2-12.1,28.9C339.9,602.5,340.7,602.9,341,602.4L341,602.4z"/>
			</g>
		</g>
		<g>
			<g>
				<path class="st2" d="M431.8,555.1c-6.9,4.7-6.3,15.9-7.2,23.4c-1,8.6-1.7,17.2-2.2,25.9c-0.4,6.8-0.4,14.3,3,20.4
					c3.4,6.1,9.7,10,16.7,10.4c14.1,0.9,25.3-11.4,32.5-22.1c7.8-11.7,12.9-24,13-38.1c0-0.7-1-0.9-1.2-0.2
					c-3.2,10.8-7.8,22-14.7,31c-5.1,6.8-17.9,21.1-27.8,16.8c-3.4-1.5-4-6.3-4.4-9.6c-0.6-5.8,0.3-11.9,0.7-17.6
					c0.5-7,0.5-14,0.5-21c0-6,1-14.4-4-18.7C435.3,554.6,433.3,554.1,431.8,555.1L431.8,555.1z"/>
			</g>
		</g>
		<g>
			<g>
				<path class="st2" d="M494.8,563c3.2-10.2,17.3-24.5,3.8-33.6c-5.2-3.5-11.5-1.2-15.5,3c-6.2,6.5-5.3,16.2-3.3,24.2
					c2.3,9.3,6.5,18.4,10.1,27.3c3.7,9.1,7.6,18.2,11.8,27.1c3.5,7.3,9.4,15.8,8.3,24.4c-0.9,7.1-6.7,11-13.4,8.5
					c-9.9-3.8-10.7-14.3-5.5-22.7c2.8-4.5,7-7.7,11.5-10.4c4.1-2.4,8-5.2,12.2-7.4c0.6-0.3,0.3-1.4-0.4-1.3
					c-8.3,0.7-15,2.5-21.5,7.9c-6.2,5.2-10.1,12.2-11.2,20.2c-2.1,14.8,10.6,30.6,26.4,24.8c17.4-6.4,17.4-29.4,11.8-43.8
					c-3.6-9.4-8.1-18.5-12.1-27.8c-4.2-9.8-7.7-19.9-12.1-29.6c-2-4.4-5.5-9.8-4.6-14.9c0.7-3.8,6.1-8.9,9.5-4.7
					c3.3,4.2,0.7,11-1.5,15c-2.5,4.5-4.9,8.2-5.7,13.4C493.3,563.5,494.5,563.9,494.8,563L494.8,563z"/>
			</g>
		</g>
		<g>
			<g>
				<path class="st2" d="M508.5,604.8c10.3-2,19.6-7.9,27.7-14.3c8.6-6.8,15.7-15,20.5-24.9c0.3-0.5-0.4-1.2-0.9-0.7
					c-6.8,7.4-13.9,14.8-21.7,21.3c-8.1,6.8-17.4,11.7-26,17.7C507.7,604.2,507.9,604.9,508.5,604.8L508.5,604.8z"/>
			</g>
		</g>
		<g>
			<path class="st2" d="M592.4,568.9c1.3-6.5,1.7-13.8-3.1-19.1c-4.5-4.9-11.2-5.3-16.9-2.3c-7.3,3.9-10.9,11.4-14.1,18.7
				c-3.7,8.3-6.2,17-7.3,26.1c-0.9,7.2-0.6,15.3,3.6,21.4c4.3,6.3,12.4,10.6,20.1,8.7c16-3.8,20.6-22.1,21.4-36.4
				c-1.6,0.2-3.2,0.4-4.8,0.7c1.2,5.4-1.9,10.8-3.2,16c-1,4.1-1.8,8.8-1.5,13.1c0.8,13.3,12.1,14,22.2,9.4
				c10.8-5,18.8-16.9,24.5-26.9c0.6-1.1,1.2-2.7,0.3-3.6c-1.1-1.2-3-0.1-4.2,1c-6,5.3-33.5,33.9-33.5,10c0.1-6.9,1.2-13.1,0.1-20.1
				c-0.4-2.6-4-2.1-4.7,0c-2,5.9-3.5,13-8,17.6c-3.8,3.9-10.4,6.3-14.9,2.3c-4.9-4.2-2.2-11.6-1.4-17.1c1.4-8.6,3.9-17.1,6.8-25.3
				c1.7-4.5,3.9-13.2,10.7-10.6c5.9,2.3,6.1,11.1,6.6,16.3C591.2,569.4,592.2,569.7,592.4,568.9z"/>
		</g>
		<g>
			<g>
				<path class="st2" d="M671.5,569c1.1-6.2,1.8-12.9-2.5-18.1c-3.1-3.7-8.8-5.5-13.5-4.4c-6.9,1.6-10.1,8.1-12.9,13.9
					c-3.7,7.7-6.7,15.9-9.2,24.1c-2.1,6.8-3.9,14.6-1.7,21.5c2.1,7.1,8.8,12.5,16.3,12c7.2-0.4,13.5-5.2,16.8-11.4
					c3.7-7,4-14.8,9.3-21.1c-1.2-1.2-2.4-2.4-3.6-3.6c-6.7,7.9-10.4,19.9-6.6,29.9c3.3,8.5,12.2,15.1,21.5,12.1
					c9.2-3,14.7-14,19.7-21.4c6.6-9.9,13.1-19.7,17.4-30.9c0.6-1.5-1.6-2.2-2.4-1c-9.4,13.6-17.9,29.2-30.7,39.9
					c-5.8,4.8-12.9,5.4-16.4-2.5c-3.4-7.7,1.1-16.5,1.9-24.3c0.2-2.4-2.8-3.1-4.3-1.8c-6.3,5.5-9.2,14.4-16.4,19
					c-1.9,1.2-5.8,2.1-6.7,0.6c-1.5-2.3,0.5-7.7,1-10c2-10,3.8-20,6.4-29.8c0.6-2.2,1.2-4.3,2.2-6.3c0.5-0.9,0.9-2,1.6-2.8
					c1.5-1.6,4.2-2.4,6.4-1.6c6.1,2.1,5.8,12.8,5.8,17.9C670.8,569.2,671.4,569.4,671.5,569L671.5,569z"/>
			</g>
		</g>
		<g>
			<g>
				<path class="st2" d="M734.4,561.7c14.1-13.4,25-30,32.5-48c3.6-8.7,6.6-17.7,7.9-27c0.9-7-0.1-14.7-6.6-18.8
					c-18.7-11.6-34.2,13.8-39.3,28.4c-7.2,20.7-9.6,43.3-12.3,65c-1.7,13-3.1,26-3.8,39.1c-0.4,6.5-0.6,13.1-0.5,19.6
					c0,3.1,0.2,6.6,0.9,9.7c0.6,2.8,2.5,4.6,4.4,6.6c0.8,0.9,2.3,0.8,3.2,0c3.5-3.3,4.8-5.7,5.9-10.5c1.1-4.8,1.6-9.8,2.1-14.7
					c1.2-9.8,2.2-19.6,3.4-29.4c2.3-19.7,5.8-39.1,9.3-58.6c2.8-15.4,6-33.1,15.3-46c2.2-3.1,7.1-5.7,9.2-1.1
					c1.2,2.7,0.9,6.7,0.5,9.6c-1.1,8.2-3.7,16.7-6.3,24.6c-6,18.4-15.5,35.1-27.1,50.5C732.3,561.5,733.6,562.4,734.4,561.7
					L734.4,561.7z"/>
			</g>
		</g>
		<g>
			<g>
				<path class="st2" d="M731.8,585c3.9-6.7,9.1-12.6,16.4-15.7c3.7-1.5,9.3-4.6,11.9-0.1c1.7,3,0.4,6.7-1.1,9.5
					c-6,11.5-17.3,17.4-30.1,17.4c-9.2,0-9,14.8,0,14.2c10.5-0.7,19.9-5.1,28-11.8c7.5-6.2,14.9-16.4,14.2-26.6
					c-0.7-10.3-10.8-14.5-19.5-10.2c-8.6,4.3-16.1,14.5-20.1,23C731.5,585.1,731.7,585.2,731.8,585L731.8,585z"/>
			</g>
		</g>
		<g>
			<g>
				<path class="st2" d="M734.8,606.7c-0.3,9.2,5.2,18.1,10.7,25c5.9,7.4,14.9,12.5,24.3,13.6c20.9,2.5,29.4-21.2,33.1-37.4
					c0.1-0.5-0.5-0.6-0.7-0.2c-3.2,7.8-6.5,18.5-14.3,22.9c-6.3,3.6-12.6,4.9-19.7,2.9c-6.9-1.9-12.5-6.8-17.1-12.1
					c-4.8-5.4-8.1-12-14.3-16C735.9,605,734.8,605.7,734.8,606.7L734.8,606.7z"/>
			</g>
		</g>
		<g>
			<g>
				<path class="st2" d="M840.3,566.1c1-6.6,1.3-12-2.2-17.8c-3.2-5.3-7.7-8.3-14.2-6.5c-7.1,2-11.2,8.4-14.2,14.8
					c-3.7,7.9-6.4,16.1-7.6,24.7c-1.9,13.4-1.6,34.5,15.8,36.8c7.2,1,13.6-2.5,17.8-8.4c2-2.9,3.4-6.1,4.3-9.5c1.1-4,1-8.3,2.1-12.2
					c-2.2-0.9-4.4-1.9-6.6-2.8c-2.5,4.4-3.4,9-4.2,14c-0.7,5.1-1.6,10.7-1.5,15.8c0.2,7.6,3.8,17.5,12.9,17.4
					c4.3,0,7.6-2.4,10.5-5.2c3.3-3.2,6.8-6,9.9-9.4c3-3.5,5.3-7.3,7.9-11.1c2.7-4,4.2-7.4,5.7-12c0.3-1-1-1.4-1.5-0.7
					c-3.9,5.5-7.9,11.4-12.8,16.1c-3.5,3.4-11.2,12.8-16.8,11.5c-4.1-1-1.8-11.1-1.7-14c0.3-7.1,0.8-14.7-1.9-21.4
					c-1.6-3.8-6.6-3.2-7.1,1c-0.8,6.4-6.7,17.8-14.8,15.9c-5.6-1.3-3.5-15.7-3.2-19.6c0.7-8.8,2.9-18.8,7.6-26.3
					c1.6-2.5,4.3-7,7.7-7c3.9,0,5.4,4.7,5.8,7.9c0.3,2.7,0.2,5.3,0,8C838,567,840.1,567.3,840.3,566.1L840.3,566.1z"/>
			</g>
		</g>
		<g>
			<g>
				<path class="st2" d="M435.2,536.3c1.3,0,2.4-0.2,3.5-0.8c1.1-0.4,2.1-1,3-1.9c0.9-0.8,1.5-1.8,1.9-3c0.6-1.1,0.8-2.3,0.8-3.5
					c-0.1-0.8-0.2-1.6-0.3-2.4c-0.4-1.6-1.2-2.9-2.4-4c-1.8-1.6-4-2.7-6.5-2.7c-1.3,0-2.4,0.2-3.5,0.8c-1.1,0.4-2.1,1-3,1.9
					c-0.9,0.8-1.5,1.8-1.9,3c-0.6,1.1-0.8,2.3-0.8,3.5c0.1,0.8,0.2,1.6,0.3,2.4c0.4,1.6,1.2,2.9,2.4,4
					C430.5,535.2,432.7,536.3,435.2,536.3L435.2,536.3z"/>
			</g>
		</g>
	</g>
	<g id="Layer_4">
		<g>
			<g>
				<path class="st3" d="M163.3,460.9c15.2-70.6,45.3-140.7,90.6-197.3c12.8-15.9,27-30.4,40.1-46c0.4-0.5-0.2-1.1-0.7-0.7
					c-13.6,11.4-25.4,25.7-36.2,39.8c-11.2,14.6-21.8,29.7-31.6,45.2c-19.3,30.8-35.3,63.7-47.1,98.1c-6.8,19.7-11.8,40.1-15.7,60.6
					C162.6,461.1,163.2,461.3,163.3,460.9L163.3,460.9z"/>
			</g>
		</g>
		<g>
			<g>
				<path class="st3" d="M290.8,222.4c57.9-54.9,124.7-110.2,207.1-118.6c22.2-2.3,44.6,0,66.6,2.5c1.5,0.2,1.6-2,0.3-2.4
					c-19.5-6.8-39.6-6.9-60-4.8c-20.2,2.1-40.1,7-59.3,13.8c-38.1,13.5-73.1,35.5-104.1,61.2c-18,14.9-34.8,31.2-51.1,48
					C290.1,222.2,290.5,222.6,290.8,222.4L290.8,222.4z"/>
			</g>
		</g>
		<g>
			<g>
				<path class="st3" d="M125.3,432.5c3-31.2,18.3-59.1,37.4-83.4c18.6-23.5,39.8-45.9,61.5-66.5c6.2-5.9,12.6-11.6,19.3-16.9
					c6.7-5.3,14.2-9.5,20.8-14.8c0.7-0.6-0.2-1.5-0.9-1.2c-6.9,3-13.2,8.3-19.1,12.9c-5.9,4.5-11.5,9.3-17,14.3
					c-11.8,10.8-22.8,22.4-33.7,34.1c-21.2,22.7-42.6,46-56.3,74.1c-7.3,14.9-12.1,30.8-13.2,47.4
					C124.1,433.2,125.2,433.2,125.3,432.5L125.3,432.5z"/>
			</g>
		</g>
		<g>
			<g>
				<path class="st3" d="M156.6,352c5.5-7,10.6-14.1,15.8-21.4c5.3-7.4,10.5-14.8,16-22c11.3-14.9,23.3-29.1,36-42.9
					c25.1-27.4,53.7-51.4,84.7-71.9c17.3-11.5,35.6-21.5,53.4-32.1c0.8-0.5,0.3-2-0.7-1.6c-34.2,13.4-65.7,35.5-94.1,58.5
					c-29.4,23.9-56.2,50.8-79.4,80.8c-6.3,8.2-12.3,16.7-17.9,25.4c-2.7,4.2-5.3,8.6-7.9,13c-2.7,4.6-4.4,9.1-6.4,13.9
					C156,352,156.5,352.2,156.6,352L156.6,352z"/>
			</g>
		</g>
		<g>
			<g>
				<path class="st3" d="M330,177.5c3.3-6.2,5.6-13,9-19.2c3.3-6.1,7-11.8,11.2-17.2c9.3-12.1,20.3-20.8,32.9-29.2
					c0.5-0.4,0.1-1.1-0.5-0.8c-13.4,5.8-26,16.7-35.2,27.9c-8.5,10.4-17.5,24.5-19,38.1C328.4,177.9,329.6,178.1,330,177.5
					L330,177.5z"/>
			</g>
		</g>
		<g>
			<g>
				<path class="st3" d="M361,126.7c2.8-23.9,31.7-17.2,47.8-21.7c0.6-0.2,0.7-1.2,0-1.3c-6.3-0.9-12.7-0.1-19,0.4
					c-5.7,0.5-11.4,1.2-16.7,3.4c-7.3,3.1-14,10.9-12.4,19.2C360.8,126.9,361,126.9,361,126.7L361,126.7z"/>
			</g>
		</g>
		<g>
			<g>
				<path class="st3" d="M361.4,126.1c4.5,6.7,16.1,2.2,21.1-1.4c9-6.4,14.7-14.9,25.8-18.3c0.3-0.1,0.3-0.6-0.1-0.6
					c-7.7-0.4-14,5-19.7,9.7c-3.7,3.1-7.5,6.3-12,8.2c-2.4,1.1-5.2,1.9-7.8,2c-2.3,0.1-4.5-0.7-6.8-0.6
					C361.5,125.1,361.1,125.7,361.4,126.1L361.4,126.1z"/>
			</g>
		</g>
		<g>
			<g>
				<path class="st3" d="M277,211.9c1.3-3.7,0.5-8,0.2-11.8c-0.4-4.4-0.8-8.8-1.2-13.2c-0.1-1.3-0.9-2.6-2.2-2.9
					c-1-0.3-1.4-0.2-2.3,0.3c-0.9,0.4-1.6,1.6-1.5,2.6c0.5,4.7,1,9.5,1.5,14.2c0.4,3.8,0.6,7.9,2.5,11.2
					C274.8,213.6,276.6,213.2,277,211.9L277,211.9z"/>
			</g>
		</g>
		<g>
			<g>
				<path class="st3" d="M272.4,188c2.5,0.7,4.7-2.7,6.1-4.2c1.2-1.2,2.5-2.1,3.3-3.6s1.4-2.6,2.7-3.8c0.2-0.2,0-0.5-0.2-0.5
					c-1.7,0-3.6-0.2-5.3,0.1c-2.2,0.4-3.8,1.9-5.2,3.6c-1.2,1.5-2.6,3.3-2.7,5.3C271.1,185.8,271.3,187.7,272.4,188L272.4,188z"/>
			</g>
		</g>
		<g>
			<g>
				<path class="st3" d="M274.1,184.8c-0.7-1.9-2.3-2.7-4.1-3.2c-2-0.6-4.2-1.3-6,0c-1.1,0.8-1.7,2.3-0.9,3.5c1.2,2,3.2,2.3,5.4,2.6
					c1.8,0.2,3.8,0.4,5.2-1.1C274.1,186.2,274.3,185.4,274.1,184.8L274.1,184.8z"/>
			</g>
		</g>
		<g>
			<g>
				<path class="st3" d="M269,181.8c-5.8-3.1-5.1-10.2,0.4-13.1c5.9-3.2,14.1,1.3,10.7,8.4c-0.2,0.4,0.3,0.8,0.6,0.5
					c2.7-2.3,2.5-6,0.5-8.8c-2.7-3.6-8-4.1-11.9-2.4c-3.5,1.5-6.7,4.8-6.7,8.8c-0.1,3.7,2.4,7.3,6.2,7.4
					C269.2,182.6,269.3,182,269,181.8L269,181.8z"/>
			</g>
		</g>
		<g>
			<g>
				<path class="st3" d="M212.8,274.3c-6.9-6.8-21.2,0.5-27.6,5c-4.6,3.2-8.7,7.2-13.3,10.5c-5,3.6-10.1,6.4-15.6,9.1
					c-0.3,0.2-0.1,0.6,0.2,0.6c9.8-1.9,17.8-9.2,26.2-14.1c4.8-2.8,9.9-5.8,15.2-7.6c4.9-1.6,10.1-1.2,14.8-3.2
					C212.8,274.6,212.8,274.4,212.8,274.3L212.8,274.3z"/>
			</g>
		</g>
		<g>
			<g>
				<path class="st3" d="M155.2,298.7c-8.3,1-13.6,7.3-16.7,14.7c-2.5,5.9-3.8,12.3-6.7,18c-2.8,5.6-6.7,9.1-12.3,11.8
					c-0.3,0.2-0.1,0.7,0.2,0.6c7.6-1.7,12.3-9.9,15-16.5c4.4-10.6,7.6-25.1,20.6-28.1C155.6,299.2,155.5,298.6,155.2,298.7
					L155.2,298.7z"/>
			</g>
		</g>
		<g>
			<g>
				<path class="st3" d="M128.1,337.1c8.5-0.8,16.8-6.6,21.9-13.2c5-6.3,9.4-16.9,6.6-24.9c-0.1-0.3-0.6-0.4-0.7,0
					c-0.9,3.6-0.9,7.3-1.8,10.9c-1.1,4.3-3,8.4-5.5,12c-5.3,7.5-12.4,11-20.6,14.3C127.5,336.3,127.5,337.1,128.1,337.1L128.1,337.1
					z"/>
			</g>
		</g>
		<g>
			<g>
				<path class="st3" d="M116.7,471.1c1.2-5.7,3.1-11.3,4.3-17c1.3-5.7,2.6-11.5,4-17.2c3-11.7,6.6-23.2,10.8-34.5
					c4.3-11.4,9.2-22.5,14.7-33.3c2.7-5.2,5.3-10.5,8.2-15.6c2.5-4.4,6.1-8.8,6.7-13.9c0.1-0.6-0.7-0.9-1.1-0.6
					c-4.4,2.7-6.7,8.1-9.3,12.4c-3.2,5.3-6.3,10.6-9.1,16.2c-5.4,10.7-10.2,21.7-14.4,32.9c-4.3,11.3-7.9,22.8-10.9,34.5
					c-1.5,6-2.9,12-3.9,18.1c-1,6-1.1,11.9-1.5,18C115.1,471.7,116.5,471.9,116.7,471.1L116.7,471.1z"/>
			</g>
		</g>
		<g>
			<g>
				<path class="st3" d="M152.8,356.8c-5.7,16.7-5.6,34.9-3.9,52.3c1.7,17.9,5.4,35.6,8.9,53.2c3.8,18.9,8.2,37.6,12,56.4
					c2.5,12.5,3.5,28.5,15.6,35.8c0.3,0.2,0.6-0.2,0.3-0.4c-10.6-10.2-12-28.2-14.4-42c-3.1-17.3-6.1-34.7-9.5-52
					c-3.3-17-6.9-33.9-8.6-51.1c-1.7-17.4-0.8-34.5,2.1-51.7C155.5,355.9,153.3,355.3,152.8,356.8L152.8,356.8z"/>
			</g>
		</g>
		<g>
			<g>
				<path class="st3" d="M117.3,508.9c5.2-16,10.1-32.1,16.3-47.8c6.4-16,13.8-31.7,21.5-47.1c15.1-30.1,35.2-58,56.5-83.9
					c6-7.2,12.1-14.3,18.5-21.2c3.2-3.4,6.2-7.1,9.3-10.6c3.4-3.7,7.2-6.8,10.4-10.7c0.6-0.8-0.2-2.3-1.2-1.5
					c-6.6,4.9-12.4,11.4-18.3,17.2c-6.1,6-11.6,12.6-17.1,19.1c-11,12.9-21.4,26.5-30.7,40.6c-18.8,28.2-35.5,58.4-48.4,89.8
					c-7.4,18-14.5,36.6-19,55.5C114.8,509.7,116.9,510.2,117.3,508.9L117.3,508.9z"/>
			</g>
		</g>
		<g>
			<g>
				<path class="st3" d="M138.1,514.7c2.4-68.7,24.7-136,64.6-192.1c5.8-8.2,11.9-16.2,18.4-23.8c6.3-7.3,13.6-13.9,19.6-21.4
					c0.8-1-0.3-2.9-1.5-2c-6.7,5-12.3,11.7-17.9,17.9c-5.7,6.3-11.3,12.8-16.4,19.5c-10.8,14.1-20.3,29.1-28.6,44.8
					c-16.5,31-28.4,64.5-34.3,99.1c-3.2,19.2-4.7,38.6-4.3,58.1C137.7,515,138.1,515,138.1,514.7L138.1,514.7z"/>
			</g>
		</g>
		<g>
			<g>
				<path class="st3" d="M138.4,497.7c-4.8,11-6.8,23.8-8.6,35.6c-1.9,12.1-3.2,24.4-3.7,36.7c-0.5,12.5-0.3,25.1,0.6,37.6
					c0.9,12.1,1.4,25.7,5.1,37.3c0.1,0.3,0.6,0.3,0.6-0.1c-0.3-6.2-1.7-12.4-2.5-18.6c-0.8-6.2-1.3-12.5-1.8-18.7
					c-0.8-12.2-0.9-24.4-0.2-36.6c0.7-12.7,1.9-25.4,4-38c1.9-11.7,5.4-23.3,6.9-35.1C138.8,497.6,138.5,497.5,138.4,497.7
					L138.4,497.7z"/>
			</g>
		</g>
		<g>
			<g>
				<path class="st3" d="M118.6,502.2c-4.1,6.9-6.4,15.2-8.7,22.8c-2.4,7.6-4.4,15.3-6.2,23c-3.4,15.1-5.7,30.5-7.2,45.9
					C95,610,93.3,626,92.7,642.1c-0.6,15.8-1.6,32.7,1.8,48.2c0.2,0.8,1.5,0.8,1.6,0c2.6-15.1,1.3-31.1,1.1-46.3
					c-0.2-15.7-0.5-31.6,0.7-47.3c1.3-16.2,3.8-32.4,7.4-48.2c1.8-7.8,3.8-15.4,6.2-23c2.4-7.7,5.9-15.2,7.8-23
					C119.5,502.1,118.9,501.8,118.6,502.2L118.6,502.2z"/>
			</g>
		</g>
		<g>
			<g>
				<path class="st3" d="M118,460.1c-4.3,14.8-5.9,30.7-7.6,46c-1.8,15.7-2.8,31.5-3.3,47.3s-0.4,31.6,0.3,47.4
					c0.7,15.2,0.2,31.9,4.8,46.5c0.3,1,1.7,0.8,1.8-0.2c0.5-7.7-0.7-15.4-1.5-23.1c-0.8-7.7-1.4-15.4-1.8-23.1
					c-0.8-15.8-1.1-31.6-0.7-47.4c0.4-15.5,1.4-30.9,2.9-46.3c1.6-15.7,4.6-31.2,5.9-46.9C118.9,459.7,118.1,459.6,118,460.1
					L118,460.1z"/>
			</g>
		</g>
		<g>
			<g>
				<path class="st3" d="M108.5,533c-1.1,28,7.5,54.3,14.8,81c7.6,27.8,11.1,56.2,16.2,84.5c0.1,0.6,1,0.4,1-0.1
					c0.4-27.8-5.7-55.9-12.8-82.6c-7.2-27.2-17.1-54.3-18.7-82.7C108.9,532.7,108.5,532.7,108.5,533L108.5,533z"/>
			</g>
		</g>
		<g>
			<g>
				<path class="st3" d="M126.9,626.5c-0.5,25.2,3.6,50.6,10.3,74.9c3.3,12.1,7.4,24.1,12.2,35.7c2.3,5.7,4.8,11.3,7.4,16.9
					c2.4,5.1,4.7,12,9.3,15.6c0.4,0.3,1.3,0.2,1.3-0.5c-0.5-5.2-3.9-9.9-6.2-14.5c-3-6-5.7-12.2-8.3-18.4
					c-4.7-11.4-8.8-23-12.2-34.8c-7-24.5-10.9-49.5-13.5-74.8C127.2,626.4,126.9,626.4,126.9,626.5L126.9,626.5z"/>
			</g>
		</g>
		<g>
			<g>
				<path class="st3" d="M139,696c2,12.9,5.6,25.5,9,38.1c3.6,12.9,7.4,25.7,12,38.2c4.3,11.8,9,23.3,14.7,34.4
					c2.9,5.8,5.7,11.6,8.7,17.4c2.8,5.3,5.4,11.7,9.9,15.9c0.3,0.3,0.9,0,0.8-0.4c-1.9-5.5-5.9-10.4-8.8-15.5
					c-3.2-5.6-6.4-11.3-8.9-17.2c-5.2-12.1-9.8-24.5-14-37c-4-12.1-7.8-24.3-11.3-36.5c-3.6-12.5-6.6-25.3-11.1-37.6
					C139.6,695.3,138.9,695.5,139,696L139,696z"/>
			</g>
		</g>
		<g>
			<g>
				<path class="st3" d="M160.4,758.4c12.6,28.7,28.3,57.1,47.5,82c8.6,11.2,17.2,22.5,27.1,32.6c5,5.1,10.2,10.1,15.6,14.7
					c5,4.3,10.6,9.8,16.7,12.4c0.4,0.2,0.8-0.3,0.5-0.7c-4.5-5.4-10.8-9.5-15.9-14.3c-5-4.7-9.8-9.6-14.5-14.7
					c-9.8-10.7-19.2-21.7-27.2-33.8c-8.3-12.6-16.6-25.2-24.4-38.2c-8.2-13.7-16.1-27.3-25-40.5
					C160.7,757.8,160.2,758.1,160.4,758.4L160.4,758.4z"/>
			</g>
		</g>
		<g>
			<g>
				<path class="st3" d="M209.4,831.3c-2.7-16.7-6.9-33.1-9.8-49.7c-3-17.5-5.5-35.1-7.3-52.7c-3.5-33.9-5.6-68.1-9.7-102
					c-0.1-0.6-0.9-0.6-0.9,0c-1.3,34,2.3,68.8,7.4,102.4c2.6,17,5.3,34,8.1,51c2.9,17.2,5.3,34.9,9.8,51.7
					C207.5,833.5,209.7,832.8,209.4,831.3L209.4,831.3z"/>
			</g>
		</g>
		<g>
			<g>
				<path class="st3" d="M183,632.8c-1.6-16.9-3.1-33.8-4.9-50.7c-1.8-17-3.1-34-5-50.9c0-0.4-0.6-0.4-0.6,0
					c-0.5,17.2,0.5,34.8,2,51.9c1.5,16.9,4.2,33.2,7.6,49.8C182.3,633.4,183.1,633.3,183,632.8L183,632.8z"/>
			</g>
		</g>
		<g>
			<g>
				<path class="st3" d="M175.5,601.1c-2.3,2.3-2.6,5.8-3.5,8.8c-1.2,3.8-2.2,7.6-2.9,11.5c-1.4,8.1-5.6,15.4-8.5,23.1
					c-0.1,0.2,0.2,0.3,0.3,0.1c4.3-7.3,6.8-15.6,10.6-23.1c1.7-3.4,2.9-7,3.8-10.7c0.8-3.1,2.2-6.3,1.1-9.5
					C176.3,600.9,175.8,600.8,175.5,601.1L175.5,601.1z"/>
			</g>
		</g>
		<g>
			<g>
				<path class="st3" d="M164.1,634.8c-0.1,4.3,1.1,8.7,1.6,13c0.6,4.4,1.1,8.7,1.5,13.1c0.8,8.8,0,17.6,0.2,26.4
					c0,0.8,1.2,1,1.4,0.2c1.7-8.9,1.2-18.5,0.7-27.5c-0.4-8.1-0.8-18.1-4.4-25.4C164.9,634.1,164.1,634.3,164.1,634.8L164.1,634.8z"
					/>
			</g>
		</g>
		<g>
			<g>
				<path class="st3" d="M167.2,686.8c-4.9-7.3-7.9-15.9-8.6-24.7c-0.7-8.8,1.7-16.1,4.3-24.3c0.1-0.2-0.3-0.4-0.4-0.2
					c-9.1,14.6-5.3,36.1,4.5,49.2C167.2,687,167.3,686.9,167.2,686.8L167.2,686.8z"/>
			</g>
		</g>
		<g>
			<g>
				<path class="st3" d="M183,793.2c0.1,0,0.1-0.2,0-0.2C182.9,793,182.9,793.2,183,793.2L183,793.2z"/>
			</g>
		</g>
		<g>
			<g>
				<path class="st3" d="M182.5,792.4c-5-14.7-11.8-28.8-17.1-43.5c-5.4-14.9-10.1-30.3-13.6-45.8c-3.5-15.7-6.1-31.6-7.7-47.6
					c-1.6-15.7-1.4-31.1-1.2-46.8c0.1-8.8,0.5-17.7,1.2-26.5s2.2-18.4,1.4-27.2c-0.1-0.7-1-0.8-1.2-0.2c-2.9,7-3.9,15.5-4.6,23
					c-0.7,7.9-1.2,15.9-1.5,23.8c-0.5,16.2,0.8,32.5,2.3,48.6c2.9,31.8,9.4,63.5,19.5,93.7c5.6,16.7,11.7,34,21.5,48.8
					C181.9,793.2,182.7,793,182.5,792.4L182.5,792.4z"/>
			</g>
		</g>
		<g>
			<g>
				<path class="st3" d="M144.5,570.6c2.4-10.7,2.3-22.2,3.7-33.1c1.6-12.4,3.6-24.7,6-37c2.2-11.4,4.8-22.8,7.8-34.1
					c3-11.6,7.1-22.9,9.5-34.6c0.2-0.8-1-1.4-1.4-0.6c-4.8,10.3-7.6,21.6-10.5,32.6c-3.1,11.9-5.8,23.9-8.2,35.9
					c-2.2,11.3-4,22.6-5.4,34c-1.5,11.8-4,24.8-2.8,36.7C143.2,571.1,144.3,571.4,144.5,570.6L144.5,570.6z"/>
			</g>
		</g>
		<g>
			<g>
				<path class="st3" d="M108.9,637.2c5,50.6,13.3,102.3,34,149.1c10.5,23.8,23.8,46.5,39.2,67.5c15.6,21.2,33.4,40.8,51.2,60.2
					c19,20.7,37.7,42.2,61.2,57.9c0.3,0.2,0.6-0.3,0.3-0.5c-20.5-14.9-37.5-33.7-54.3-52.6c-17.6-19.8-35-39.7-50.7-61.1
					c-15.1-20.5-28.2-42.5-39.2-65.4c-10.9-22.8-18.3-47-24.2-71.5c-6.7-27.7-10.6-55.8-15.6-83.8
					C110.6,635.9,108.8,636.1,108.9,637.2L108.9,637.2z"/>
			</g>
		</g>
		<g>
			<g>
				<path class="st3" d="M207.4,827.5c1.2,9.1,1.6,18,3.3,27c1.7,9,3.9,18,6.8,26.7c5.4,16.5,14.9,31.2,26.5,44
					c5.7,6.3,12.5,11.7,19,17.2s13.4,10.6,20.5,15.4c16,10.9,33.3,20.2,50.3,29.5c18.3,9.9,37.9,18.5,58.4,22.3
					c0.6,0.1,0.9-0.7,0.3-0.9c-17.1-6.4-34.3-12.5-50.6-20.9c-16-8.3-32-17.3-47.4-26.8c-15.2-9.3-29.8-19.5-41.5-33.1
					c-11.4-13.2-20.3-26.9-26.8-43.1c-3.7-9.2-6.8-18.6-9.3-28.3c-2.6-9.7-5.6-19.5-7.8-29.3C208.8,826.4,207.3,826.6,207.4,827.5
					L207.4,827.5z"/>
			</g>
		</g>
		<g>
			<g>
				<path class="st3" d="M267.4,949.8c11,12.9,22.9,24.5,36.7,34.5c14.3,10.4,30.5,16.7,47.5,21.5c18.3,5.1,36.7,9.9,55.3,13.9
					c9.6,2.1,19.3,4.2,28.9,6.3c9,2,19.5,5.2,28.7,4.1c0.8-0.1,1.2-1.1,0.4-1.6c-7.7-4.6-18-5.7-26.7-7.6c-9.7-2-19.3-3.9-29-5.9
					c-18-3.7-36.7-5.5-54.4-10.5c-17.3-4.8-32.3-13.2-46.8-23.6c-13.8-10-26.4-21.6-40-32C267.5,948.6,267,949.4,267.4,949.8
					L267.4,949.8z"/>
			</g>
		</g>
		<g>
			<g>
				<path class="st3" d="M212.6,899c3.8,19.5,15.7,37.2,28.4,52.1c13.9,16.3,29.9,30.7,46.2,44.5c16.2,13.7,32.8,28.2,51.9,37.8
					c9.5,4.8,19.6,8.1,30.1,9.6c11.7,1.7,23.6,0.5,35.2-1.4c13.7-2.3,27.3-5.6,41-8.5c14.3-3,29.2-5.6,43-10.6
					c0.6-0.2,0.6-1.2-0.2-1.2c-46.3,4.4-94.5,31.5-140.6,11.7c-20-8.6-36.6-22.8-52.9-36.9c-15.2-13.1-30.5-26.2-44.1-41
					c-7.8-8.4-15.4-17.5-21.6-27.1c-6-9.3-10.9-19.4-15.9-29.3C213,898.5,212.5,898.7,212.6,899L212.6,899z"/>
			</g>
		</g>
		<g>
			<g>
				<path class="st3" d="M253.8,888.2c10.2,13,23.1,23.6,36.1,33.7c13,10.1,26.5,19.8,40.5,28.5c28,17.5,57.7,32.6,88.1,45.6
					c8.3,3.5,16.8,6.6,25.3,9.4c4.3,1.5,8.6,2.9,12.9,4.1c4.4,1.2,9,2.9,13.6,2.4c0.4,0,0.8-0.6,0.4-1c-5.3-4.4-13.5-6.1-20-8.3
					c-7.7-2.7-15.4-5.6-23.1-8.6c-15.6-6.2-31.1-12.5-46.1-20c-29.3-14.8-57.1-32.4-83.3-52.1c-14.8-11.2-28.7-23.6-44.1-33.9
					C253.9,887.7,253.7,888,253.8,888.2L253.8,888.2z"/>
			</g>
		</g>
		<g>
			<g>
				<path class="st3" d="M457,1005c-0.8-4.5-5.7-8-8.7-11.2c-4-4.2-8-8.5-12.1-12.7c-8.1-8.4-17.4-15.6-25.7-23.8
					c-0.1-0.1-0.2,0-0.1,0.1c7.8,8.7,14.6,18.3,22.7,26.8c3.8,4,7.6,8,11.4,12c3.2,3.3,6.7,8.8,11.4,9.8
					C456.6,1006.3,457.1,1005.7,457,1005L457,1005z"/>
			</g>
		</g>
		<g>
			<g>
				<path class="st3" d="M314.7,938.3c-10.6-4-23.5-3.9-34.7-3.9c-0.3,0-0.4,0.5-0.1,0.6c10.9,2.6,23.4,5.6,34.6,4.2
					C315.1,939.1,315.2,938.4,314.7,938.3L314.7,938.3z"/>
			</g>
		</g>
		<g>
			<g>
				<path class="st3" d="M239.1,946.4c-9.3-7.2-22.2-12.8-33.9-14.1c-0.3,0-0.4,0.5-0.1,0.6c5.5,1.9,11.1,3.4,16.6,5.6
					c5.9,2.4,11.4,5.5,17.1,8.5C239.2,947.2,239.5,946.7,239.1,946.4L239.1,946.4z"/>
			</g>
		</g>
		<g>
			<g>
				<path class="st3" d="M257.2,888.5c-2.5-7-6.6-13.3-9-20.4c-2.5-7.6-3.9-15.5-4.3-23.5c0-0.8-1.3-0.8-1.3,0
					c0,8.1,1.1,16.2,3.3,24.1c2,6.9,4.9,15.4,9.9,20.6C256.4,889.9,257.5,889.3,257.2,888.5L257.2,888.5z"/>
			</g>
		</g>
		<g>
			<g>
				<path class="st3" d="M256,888.1c4.1-6.2,2.3-17,0.3-23.7c-2.5-8.2-7.2-15.6-13.7-21.2c-0.8-0.7-1.9,0.5-1.1,1.1
					c6.4,5.4,11,12.3,13.4,20.4c1.1,3.8,1.7,7.8,1.8,11.8c0,3.8-1,7.6-0.7,11.4C255.9,888.1,256,888.2,256,888.1L256,888.1z"/>
			</g>
		</g>
		<g>
			<g>
				<path class="st3" d="M363,942c-0.9,2.5,1.3,4.3,2.7,6.3c2.2,3.2,4.1,6.5,6,9.9c2,3.7,3.8,7.5,5.3,11.4c1,2.5,1.5,4.8,3.9,6.4
					c0.3,0.2,0.9,0.1,1.1-0.3c2.5-5.6-3.6-15-6.3-19.9c-1.9-3.5-4.3-6.8-6.8-10c-1.6-2.1-2.8-4.5-5.7-4.1
					C363.1,941.8,363,941.9,363,942L363,942z"/>
			</g>
		</g>
		<g>
			<g>
				<path class="st3" d="M364.9,942.3c-4.1-1.2-8.4-1.8-12.6-2.7c-1.6-0.3-2.3,2.1-0.7,2.5c2.9,0.7,6,1.1,8.9,1.6
					c1.3,0.2,2.3-1.2,1.3-2.3c-1.5-1.6-3-3.1-4.4-4.7c-0.6,0.7-1.1,1.4-1.7,2.1c1.8,1.2,3.6,2.2,5.5,3.2c1,0.6,2.5-0.1,2.5-1.4
					c-0.1-3.3-0.4-6.6-0.6-10c-0.1-1.7-2.8-2.3-3.2-0.4c-0.9,4.7-0.9,13.6,4.8,15.4c0.5,0.2,0.9-0.3,0.9-0.7c0.2-2.3-1-4.3-1.7-6.4
					c-0.8-2.5-1-5.2-0.9-7.9c-1.1,0-2.2,0-3.2,0c0.2,3.3,0.3,6.6,0.6,10c0.8-0.5,1.6-0.9,2.5-1.4c-1.9-1-3.8-1.9-5.7-2.7
					c-1.3-0.6-2.8,1-1.7,2.1c1.5,1.5,2.9,3.1,4.4,4.7c0.4-0.8,0.9-1.5,1.3-2.3c-3.1-0.6-6.2-1.2-9.3-1.6c0,0.9,0,1.7,0,2.6
					c4.3,0.2,8.6,0.7,12.9,0.5C365.1,942.7,365.1,942.4,364.9,942.3L364.9,942.3z"/>
			</g>
		</g>
		<g>
			<g>
				<path class="st3" d="M355.9,940.8c-4.7-1.2-11.9-7.2-6.9-12.5c5.3-5.5,10.7,4.2,13.1,7.6c0.2,0.3,0.7,0.1,0.6-0.2
					c-0.8-3.7-2.6-7.4-6.2-9.1c-2.6-1.2-5.9-0.8-7.7,1.5c-1.7,2.1-2.2,5.1-1.1,7.6c1.4,3.3,4.8,4.9,8.2,5.4
					C356,941.1,356.1,940.8,355.9,940.8L355.9,940.8z"/>
			</g>
		</g>
		<g>
			<g>
				<path class="st3" d="M483.5,977.5c-3.8,3.6-6.3,9.5-3.3,14.3c2.4,3.8,7.9,4.5,11.2,1.4c3.5-3.2,3.4-9,0.6-12.6
					c-3.3-4.2-8.5-5.3-13.5-3.8c-0.3,0.1-0.2,0.5,0.1,0.5c3.8-0.6,8.5-0.2,11.5,2.5c3.2,2.9,4.3,8.8,0.1,11.5
					c-3.6,2.3-7.9,0.5-8.7-3.7c-0.6-3.5,1.1-6.7,2.2-9.8C483.9,977.5,483.6,977.4,483.5,977.5L483.5,977.5z"/>
			</g>
		</g>
		<g>
			<g>
				<path class="st3" d="M461.5,1008.2c13.7,6.9,29.6,9.9,44.8,12.1c7.5,1.1,15,1.8,22.6,2.2c7.4,0.4,15.3,1.1,22.4-1
					c0.8-0.2,0.8-1.4,0-1.6c-6.7-1.4-13.8-0.7-20.6-1c-8.2-0.3-16.3-1-24.4-2.2c-15.1-2.1-29.5-6.6-44.4-9.6
					C461.4,1007.1,460.9,1007.9,461.5,1008.2L461.5,1008.2z"/>
			</g>
		</g>
		<g>
			<g>
				<path class="st3" d="M460.6,1025.4c30.5,19,66.4,26.8,102,29.3c37.4,2.7,75-2,111.9-7.8c22.6-3.6,45.5-9,66.9-16.9
					c0.5-0.2,0.3-1-0.2-0.9c-37.5,9.7-76,19.8-114.9,21.6c-35.6,1.7-71.9,1.1-106.8-6.6c-20-4.4-39.9-11.1-58.6-19.3
					C460.6,1024.8,460.3,1025.2,460.6,1025.4L460.6,1025.4z"/>
			</g>
		</g>
		<g>
			<g>
				<path class="st3" d="M453.5,1029.2c37.9,18.8,83.7,18.7,125.2,17.9c45.2-0.9,90.1-6.1,134.5-14.3c12.6-2.3,25.2-5,37.7-7.9
					c11.9-2.8,24-5.5,35.3-10.3c0.6-0.2,0.1-1-0.4-0.9c-10.8,1.5-21.4,4.6-32,7.1c-10.9,2.6-21.9,5-32.9,7.2
					c-22.2,4.4-44.6,8-67.2,10.1c-42.8,4-86.2,6.5-129.1,3.7c-24-1.5-47.8-6.1-70.7-13.5C453.4,1028.2,453.1,1029,453.5,1029.2
					L453.5,1029.2z"/>
			</g>
		</g>
		<g>
			<g>
				<path class="st3" d="M625.5,1051.9c-0.3-3.6-4.9-6.7-7.7-8.5c-3.9-2.5-8.5-4.4-13-5c-0.8-0.1-0.9,1-0.4,1.3
					c3.7,2.6,7.6,4.8,11.3,7.3c2.6,1.8,6.3,5.2,9.5,5.2C625.3,1052.2,625.5,1052.1,625.5,1051.9L625.5,1051.9z"/>
			</g>
		</g>
		<g>
			<g>
				<path class="st3" d="M592.3,1035.2c7.3,2.7,14.6,5.5,21.4,9.2c0.4,0.2,1-0.4,0.6-0.7c-6.3-5.5-13.5-8.9-21.9-9.1
					C592,1034.6,592,1035.1,592.3,1035.2L592.3,1035.2z"/>
			</g>
		</g>
		<g>
			<g>
				<path class="st3" d="M546.6,1021.6c16.7,7.3,35.3,9.1,53.3,9.5c19.3,0.4,39-1.5,58.1-5c19.6-3.5,38.8-8.8,58-14.1
					c9.6-2.7,19.3-5.2,28.8-8.2c9.1-2.8,19-5.3,27.6-9.3c0.7-0.3,0.2-1.2-0.5-1.1c-9.3,1.5-18.9,4.8-28,7.3
					c-9.3,2.6-18.6,5.4-27.9,7.8c-18.4,4.7-37,8.3-55.8,11.2c-18.8,2.9-37.6,5.2-56.6,5.5s-37.5-2.5-56.2-5.7
					C546.3,1019.3,545.3,1021,546.6,1021.6L546.6,1021.6z"/>
			</g>
		</g>
		<g>
			<g>
				<path class="st3" d="M475.3,1027c16.9,0.3,33.8-1.9,50.6-3.8c16.4-1.9,32.8-4.4,49-7.3c16.5-2.9,32.7-7.1,48.7-11.8
					c15.9-4.7,32-8.9,47.7-14.3c8.6-2.9,17.1-6.2,25.5-9.6c3.6-1.5,7.2-3,10.8-4.7c4-1.8,8.5-3.3,11.6-6.5c0.4-0.4,0.1-1.4-0.5-1.3
					c-6.7,0.5-13.8,4.9-19.9,7.5c-7.6,3.2-15.3,6.4-23.1,9.4c-15.2,5.8-30.6,11.4-46.3,15.7c-15.8,4.3-32,6.8-48,9.7
					c-16.8,3.1-33.7,5.6-50.6,7.9c-18.5,2.5-37.3,4.2-55.5,8.5C474.8,1026.4,474.9,1027,475.3,1027L475.3,1027z"/>
			</g>
		</g>
		<g>
			<g>
				<path class="st3" d="M95,673.2c-1.1,11.3,1.1,23.6,3,34.9c2,12,4.2,24,7.6,35.7c6.6,23,15.8,45.1,27.2,66.2
					c22,40.7,51.5,76.8,87.4,106c9.6,7.8,19.5,15.1,29.8,21.8c10.4,6.8,21.2,13.8,32.9,18.2c1.2,0.4,1.8-1.3,0.8-1.9
					c-9.3-6.1-19.2-11.1-28.6-17c-9.7-6.1-19.2-12.7-28.2-19.8c-17-13.4-32.8-28.4-47-44.7c-30.8-35.4-53.3-76.8-67.4-121.6
					c-4-12.6-7.8-25.5-10.4-38.5c-1.3-6.2-2.4-12.5-3.4-18.7c-1.1-6.8-1.5-13.7-3.2-20.4C95.5,672.8,95.1,672.9,95,673.2L95,673.2z"
					/>
			</g>
		</g>
		<g>
			<g>
				<path class="st3" d="M217.7,914.8c-6.3-22.6-12.8-45.1-19.6-67.5c-3.4-11.1-6.7-22.1-10.1-33.2c-3.3-10.7-5.8-22-10.7-32.1
					c-0.3-0.7-1.3-0.2-1.2,0.5c1.7,11.4,6.1,22.4,9.5,33.3c3.4,11,6.9,22.1,10.3,33.1c6.9,22.1,14.2,44,21.5,65.9
					C217.6,915,217.7,914.9,217.7,914.8L217.7,914.8z"/>
			</g>
		</g>
		<g>
			<g>
				<path class="st3" d="M184.8,822.7c4.5,13.7,13.4,26.3,20.6,38.7c7.6,13.2,15.1,26.5,24,38.9c0.3,0.4,1,0.1,0.7-0.4
					c-6.3-13.9-14-27.1-21.7-40.3c-7.2-12.4-13.7-26.4-23.2-37.2C185,822.3,184.7,822.5,184.8,822.7L184.8,822.7z"/>
			</g>
		</g>
		<g>
			<g>
				<path class="st3" d="M117.4,696.4c4.2,8.7,10.3,17.9,16.6,25.3c0.2,0.3,0.6-0.1,0.4-0.3c-4.3-8.6-10.3-17.9-16.7-25.2
					C117.6,695.9,117.3,696.1,117.4,696.4L117.4,696.4z"/>
			</g>
		</g>
		<g>
			<g>
				<path class="st3" d="M187.9,724.2c3.6,6.7,7,14.1,12,19.9c0.2,0.2,0.6,0,0.5-0.3c-2.9-7.1-7.9-13.5-12.3-19.7
					C188,724,187.8,724.1,187.9,724.2L187.9,724.2z"/>
			</g>
		</g>
		<g>
			<g>
				<path class="st3" d="M217.4,767.8c-1.4,3.9-0.2,9.8,3.1,12.5c2.9,2.4,7.7,2.7,9.8-0.9c2.3-3.8-0.2-8.7-3.3-11.3
					c-3.8-3.2-8.7-4.2-13.5-2.9c-0.4,0.1-0.3,0.7,0.1,0.7c5.4-0.1,15.4,3.3,14.8,10.3c-0.4,4.4-5.6,3.4-7.5,0.8
					c-2-2.7-1.3-6.2-2.4-9.2C218.3,767.3,217.6,767.2,217.4,767.8L217.4,767.8z"/>
			</g>
		</g>
		<g>
			<g>
				<path class="st3" d="M89.8,513.2c-1.8,4.2-2.1,9.6,1.8,12.8c3.1,2.4,7.4,2,9.3-1.6c1.7-3.2,0.9-7.4-1.8-9.7
					c-3.7-3-8.6-2.6-12.4-0.2c-0.5,0.3-0.2,1.1,0.4,1c4.6-0.9,12.9-0.4,12,6.2c-0.5,3.2-3.6,4.4-6.2,2.4c-3.2-2.4-2.7-7-2.2-10.5
					C90.8,513.1,90.1,512.6,89.8,513.2L89.8,513.2z"/>
			</g>
		</g>
		<g>
			<g>
				<path class="st3" d="M120.3,436.5c-2.8,5.5-5.6,10.7-8.9,15.9c-3.4,5.4-6.9,11.4-11.1,16.3c-0.3,0.3,0.1,0.9,0.5,0.6
					c5.6-4.1,10.4-7.8,14-14c3.3-5.7,5.4-12.2,6.1-18.7C120.9,436.4,120.4,436.3,120.3,436.5L120.3,436.5z"/>
			</g>
		</g>
		<g>
			<g>
				<path class="st3" d="M183.3,383.7c-4.3,13.4-5.3,26.5-2.4,40.4c2.6,12.6,7.8,27.4,17.1,36.6c0.5,0.5,1.3-0.1,1-0.8
					c-2.9-5.8-6.6-11.1-9.1-17c-2.6-6.1-4.5-12.4-5.8-18.9c-2.5-12.9-2.8-27.3-0.4-40.3C183.7,383.6,183.4,383.5,183.3,383.7
					L183.3,383.7z"/>
			</g>
		</g>
		<g>
			<g>
				<path class="st3" d="M190.3,443.7c-0.3,5.6,4.3,11,10,11.1c2.3,0.1,2.3-3.5,0-3.5c-4.6-0.1-8.6-2.9-9.4-7.7
					C190.8,443.3,190.3,443.4,190.3,443.7L190.3,443.7z"/>
			</g>
		</g>
		<g>
			<g>
				<path class="st3" d="M187.6,444.7c0.9,3,1,6.4-0.2,9.3c-0.9,2.1-2.7,3.9-2.4,6.3c0.1,0.5,0.7,0.9,1.2,0.9
					c3.3-0.1,4.4-4.2,4.7-6.9c0.4-3.6-0.2-7-2.3-10C188.2,443.8,187.4,444.1,187.6,444.7L187.6,444.7z"/>
			</g>
		</g>
		<g>
			<g>
				<path class="st3" d="M191.2,455.4c-7.9,4.4-2,15.9,6.3,13.7c4.3-1.1,6.5-5.6,6-9.8c-0.6-5.1-4.7-8.6-8.6-11.6
					c-0.3-0.2-0.6,0.2-0.4,0.5c3.1,3.8,9.4,11.4,4.4,16.3c-2,1.9-5.6,2.2-7.6,0.2c-2.4-2.3-1.7-6.6,0.2-8.9
					C191.6,455.5,191.4,455.3,191.2,455.4L191.2,455.4z"/>
			</g>
		</g>
		<g>
			<g>
				<path class="st3" d="M241.6,321.1c-4,3.6-7.4,9.5-4.4,14.8c2.5,4.4,8.3,6.1,12.2,2.4c10.3-9.7-8.1-23.3-17.7-16.5
					c-0.5,0.3-0.3,1,0.3,1c3.8,0.5,7.9-0.6,11.6,0.5c4.5,1.3,8.2,6.4,5.7,11c-2.7,5-8.8,3.7-10.5-1.3c-1.4-4.2,0.8-8.2,3.5-11.3
					C242.5,321.3,242,320.7,241.6,321.1L241.6,321.1z"/>
			</g>
		</g>
		<g>
			<g>
				<path class="st3" d="M243.9,243.2c13.6-7.1,27.5-13.5,41.8-19.2c13.2-5.3,27.3-8.5,40.1-14.6c0.6-0.3,0.3-1.3-0.3-1.2
					c-14.1,1.8-27.8,8.1-40.7,13.6c-14.2,6-27.9,13.1-41.1,20.9C243.3,243,243.6,243.4,243.9,243.2L243.9,243.2z"/>
			</g>
		</g>
		<g>
			<g>
				<path class="st3" d="M256.8,255c14.1-6.7,27.2-16.7,40.3-25.2c13.3-8.7,26.3-17.7,39.4-26.6c13.1-8.9,26.3-17.7,39.4-26.6
					c12.6-8.5,26-16.4,37.5-26.4c0.9-0.8-0.2-2.1-1.2-1.6c-14,7.2-26.8,17-39.9,25.9s-26.3,17.8-39.4,26.6
					c-13.1,8.9-26.4,17.6-39.4,26.7c-12.3,8.7-25.9,16.7-37,26.9C256.4,254.9,256.6,255.1,256.8,255L256.8,255z"/>
			</g>
		</g>
		<g>
			<g>
				<path class="st3" d="M318.4,214.4c31.4-12.7,62.5-26.2,93.4-40c29.9-13.3,59.9-27.8,91.3-37c17.7-5.2,35.9-9,54.4-9.4
					c0.9,0,0.9-1.4,0-1.4c-32.6-1.9-63.2,7.7-93,20c-31.3,12.9-61.6,28.1-92.4,42.2c-18,8.3-36,16.6-53.8,25.4
					C318.2,214.2,318.3,214.4,318.4,214.4L318.4,214.4z"/>
			</g>
		</g>
		<g>
			<g>
				<path class="st3" d="M235.5,280c32.8-25.7,64.2-53,96.3-79.5c30.3-25,63-51,100.2-64.8c9.6-3.6,19.3-6.9,29.3-9.3
					c10.5-2.5,21.3-3.3,31.9-5.5c1.6-0.3,1-2.5-0.4-2.6c-9.1-0.9-18.6,0.9-27.5,2.9c-9.4,2.1-18.7,4.9-27.8,8.4
					c-17.8,6.9-34.9,16.3-50.9,26.5c-34.5,22.1-65,49.9-96.2,76.2c-18.5,15.6-37.1,31.3-55.1,47.5
					C235.3,279.9,235.4,280.1,235.5,280L235.5,280z"/>
			</g>
		</g>
		<g>
			<g>
				<path class="st3" d="M245.6,294.9c17-14.4,32.8-30.1,49.4-44.9c17-15.2,34.8-29.6,53.6-42.5c18.1-12.5,37.1-23.6,57.3-32.4
					c22.4-9.7,46-16.2,69.9-20.8c13.2-2.6,26.4-4.6,39.7-6.4c13.2-1.8,27.4-1.9,40.2-6c0.9-0.3,0.7-1.4-0.2-1.5
					c-12-1.1-24.6,1.5-36.6,3c-11.8,1.5-23.5,3.1-35.1,5.2c-24.4,4.3-48.5,10.2-71.5,19.4c-41.8,16.7-78.1,43.4-111.8,72.9
					c-19.2,16.9-38.2,34.4-55.3,53.4C244.8,294.7,245.2,295.2,245.6,294.9L245.6,294.9z"/>
			</g>
		</g>
		<g>
			<g>
				<path class="st3" d="M403.8,157.7c17-7.5,34.1-15.3,52-20.5c17.4-5.1,35.4-7.6,53.2-10.7c0.9-0.1,0.6-1.4-0.2-1.5
					c-18.7-1-37.1,2.9-55,8.3c-18,5.4-35.2,12.6-50.3,23.7C403.1,157.3,403.4,157.9,403.8,157.7L403.8,157.7z"/>
			</g>
		</g>
		<g>
			<g>
				<path class="st3" d="M502.9,127.4c17.3-1.5,34.5-4.7,51.8-6.5c17.4-1.8,34.7-2.7,52.2-3.1c17.4-0.4,34.9-0.2,52.3,0.7
					c8.4,0.4,16.8,1,25.1,1.9c8.2,0.9,17.1,3.3,25.4,2.1c1.4-0.2,1-2,0-2.4c-7.7-3.2-17.2-2.8-25.4-3.3c-8.4-0.6-16.7-1.2-25.1-1.6
					c-17.7-0.9-35.5-1.1-53.3-0.6c-17.4,0.5-34.9,1.9-52.2,3.8c-17,1.8-34.4,3.7-50.9,8.3C502.3,126.7,502.4,127.4,502.9,127.4
					L502.9,127.4z"/>
			</g>
		</g>
		<g>
			<g>
				<path class="st3" d="M541.2,145.5c10-1.4,19.9-5.4,29.6-8.2c9.2-2.7,18.5-5.3,27.9-7.6c19.3-4.8,39-8,58.8-9.4
					c19.7-1.3,39.4-0.1,58.8,3.5c19.2,3.6,37.8,10.1,57,13.4c1.1,0.2,2-1.4,0.8-1.9c-14-6-28.8-9.9-43.7-13.3
					c-14.9-3.5-30.1-6.1-45.4-6.8c-31.9-1.6-63.2,4.7-93.9,12.7c-8.7,2.3-17.4,4.7-26,7.3c-8.3,2.5-17.1,4.6-24.9,8.4
					C539.3,144.2,540.1,145.6,541.2,145.5L541.2,145.5z"/>
			</g>
		</g>
		<g>
			<g>
				<path class="st3" d="M643.8,119.9c18.8,2.4,33.7,14.4,48.7,25c6.6,4.7,13.4,9.2,20.9,12.4c7.9,3.4,16.3,5.5,24.7,7.2
					c17,3.4,33.7,6.2,49.7,13.1c15.4,6.6,28.9,16.4,42.4,26.1c0.8,0.6,1.5-0.6,1-1.3c-10.8-13.1-25.4-22.3-40.8-29.2
					c-16.1-7.2-32.9-10.1-50-13.4c-9.5-1.8-18.8-4.1-27.7-8.2c-7.9-3.7-15.2-8.4-22.5-13.2c-14.2-9.4-29-18.7-46.4-19.4
					C643.3,119.1,643.3,119.9,643.8,119.9L643.8,119.9z"/>
			</g>
		</g>
		<g>
			<g>
				<path class="st3" d="M661,119.3c14.2-0.3,27.7,6,40.1,12.3c10.8,5.4,21.6,10.6,32.8,15.2c11.6,4.8,23.5,9.3,34.7,15.1
					c5.2,2.7,10.3,5.6,15.2,8.9c5.4,3.5,10.2,7.7,15.7,11c0.8,0.5,2-0.5,1.4-1.4c-7.1-9.4-19-15.2-29.4-20.3
					c-11.6-5.6-23.5-10.5-35.3-15.4c-12.8-5.3-25.1-11.4-37.6-17.4C686.6,121.6,674.4,117.4,661,119.3
					C660.8,119.1,660.8,119.3,661,119.3L661,119.3z"/>
			</g>
		</g>
		<g>
			<g>
				<path class="st3" d="M710.5,122.3c6.5,4.2,13.8,7.3,20.6,11.1s13.6,7.7,20.2,11.9c6.6,4.1,13.1,8.5,19.5,13
					c6.3,4.5,12.1,10.1,19,13.5c0.6,0.3,1.1-0.4,0.7-0.9c-4.8-6.1-12.1-10.5-18.3-15c-6.4-4.5-12.9-8.9-19.5-13s-13.4-8-20.3-11.7
					c-6.9-3.6-14-7.6-21.4-9.9C710.3,121,710,121.9,710.5,122.3L710.5,122.3z"/>
			</g>
		</g>
		<g>
			<g>
				<path class="st3" d="M488.3,120.9c17.4-3.2,34.5-8,52-10.9c17.6-3,35.4-4.9,53.2-5.9c16.9-0.9,33.9-1.1,50.7,0.3
					c8.5,0.7,17,1.8,25.3,3.9c3.9,1,7.7,2.1,11.5,3.5c3.7,1.4,7.3,3.5,11.2,4.3c0.9,0.2,1.8-1,1-1.7c-5.4-4.9-14.3-7-21.1-8.8
					c-7.4-1.9-15-3.2-22.6-4c-17.9-1.9-36.1-1.8-54-1c-17.8,0.8-35.6,2.6-53.2,5.5c-18.2,2.9-37.1,6.4-54.3,13.3
					C487,119.7,487.3,121,488.3,120.9L488.3,120.9z"/>
			</g>
		</g>
		<g>
			<g>
				<path class="st3" d="M566.3,91.9c11,0.5,22.2,1.3,33,3.3c4.9,0.9,9.8,2.7,14.6,4.1c4,1.2,8.2,3.2,12.4,2.5
					c0.5-0.1,0.7-0.8,0.3-1.1c-3.2-2.8-8-3.1-12.1-3.8c-5.7-0.9-11.4-1.3-17.1-2.1c-10.4-1.6-20.6-2.8-31.1-3.2
					C566,91.6,566,91.9,566.3,91.9L566.3,91.9z"/>
			</g>
		</g>
		<g>
			<g>
				<path class="st3" d="M567.9,139.1c-0.9,17-12.3,29.4-26.4,37.6c-0.9,0.5-0.3,1.8,0.7,1.7c18.5-3.2,27.9-21.9,26.1-39.2
					C568.2,138.8,567.9,138.8,567.9,139.1L567.9,139.1z"/>
			</g>
		</g>
		<g>
			<g>
				<path class="st3" d="M566,140.1c-9.1,9.3-32.9,18.1-28.6,34.8c0.2,0.7,1.1,0.5,1.2-0.2c1.6-17.5,19.5-21.2,28-34.2
					C566.8,140.2,566.3,139.8,566,140.1L566,140.1z"/>
			</g>
		</g>
		<g>
			<g>
				<path class="st3" d="M565.4,144.1c-5.8,6.2-10.7,12.7-15.4,19.8c-0.2,0.3,0.3,0.7,0.5,0.4c5.7-6.3,10.7-12.7,15.3-19.9
					C566,144.2,565.6,143.9,565.4,144.1L565.4,144.1z"/>
			</g>
		</g>
		<g>
			<g>
				<path class="st3" d="M491.5,67.1c-2.3,0.9-3.2,1.8-4,4.3c-0.8,2.4-0.6,5.2,0.6,7.5c2.6,4.6,8.8,6.8,13.6,4.7
					c10.7-4.6,8-21-3.8-21.4c-0.9,0-1,1.2-0.2,1.5c6.1,2.5,10.1,12.1,2.5,15.6c-3,1.4-6.8,0.4-8.6-2.4c-1.9-2.9-0.8-6.4,0.3-9.4
					C492,67.3,491.7,67,491.5,67.1L491.5,67.1z"/>
			</g>
		</g>
		<g>
			<g>
				<path class="st3" d="M734.5,194.8c-1.5,4.6-3.8,10-0.2,14.2c2.5,2.9,7.1,4.5,10.3,1.7c2.9-2.5,3-6.9,1.3-10.1
					c-2.3-4.1-7.3-5.7-11.7-6.1c-0.7-0.1-1,1-0.4,1.4c3.3,1.9,12.2,5.5,9.1,10.9c-1.6,2.8-4.9,1-6.2-1c-2.1-3-1.8-7.3-1.1-10.7
					C735.6,194.5,734.7,194.2,734.5,194.8L734.5,194.8z"/>
			</g>
		</g>
		<g>
			<g>
				<path class="st3" d="M484.8,126.7c26.1,3.9,52.5,6.1,78.6,9.9c26.2,3.8,52.3,8.6,78.2,13.9c27.1,5.6,53.9,12.3,80.5,19.7
					c24.8,6.9,49.8,13.5,73.8,23.1c25.2,10,48,25.2,69.8,41.2c0.5,0.4,1-0.4,0.6-0.8c-7.4-9.3-16.8-16.6-26.9-22.7
					c-10-6.1-20.7-9.9-31.5-14.3c-24.2-9.8-49.3-17.3-74-25.4c-26.3-8.6-53.4-14.9-80.4-21c-26.5-6.1-53.3-10.9-80.2-14.9
					c-29.2-4.4-58.9-8.8-88.5-9C484.6,126.2,484.6,126.7,484.8,126.7L484.8,126.7z"/>
			</g>
		</g>
		<g>
			<g>
				<path class="st3" d="M693.9,161.1c-7.8-2.8-18.3,1.2-25.9,3.2c-9.6,2.4-20,5.2-29.7,2.1c-0.7-0.2-1.1,0.8-0.5,1.2
					c7.9,3.7,16.7,4.4,25.3,2.7c4.9-1,9.7-2.4,14.5-3.6c5.4-1.3,11.2-1.5,16.4-3.3C695.1,163.1,695.1,161.5,693.9,161.1L693.9,161.1
					z"/>
			</g>
		</g>
		<g>
			<g>
				<path class="st3" d="M763.3,133.7c16.5,6,33.1,11.9,48.7,20.2c14.8,7.9,28.7,17.5,41.5,28.3c26.2,21.8,49.2,47.5,69,75.3
					c11.3,15.9,22.2,31.9,34.3,47.3c0.6,0.8,2-0.2,1.4-1.1c-18.4-30.7-40.6-59.6-64.2-86.5c-21.9-24.8-46.8-47.2-75.7-63.5
					c-17-9.5-35.4-17.5-54.7-20.7C763.1,133,762.9,133.6,763.3,133.7L763.3,133.7z"/>
			</g>
		</g>
		<g>
			<g>
				<path class="st3" d="M686.9,113.1c29.2,19.4,63.5,25.2,96.2,36.4c28.8,9.8,56.5,23,82.4,39.1c26,16.2,49.1,35.8,71,57.1
					c21.9,21.3,41.3,44.6,58.4,69.9c9.5,14.1,18.5,28.7,26.2,43.8c4,7.8,7.6,16,10.4,24.3c2.7,8.2,5,16.6,8.2,24.6
					c0.9,2.1,4.1,1.4,3.5-1c-3.7-14.2-11-28-17.3-41.3c-6.6-13.8-12.8-27.8-20.5-41.1c-15.3-26.3-33.9-51.2-54.9-73.3
					c-21-22.1-44.8-40.7-70.1-57.8c-25.3-17-52.5-31.3-81-42.1c-17.4-6.6-35.3-11.5-53.3-16.6c-20.2-5.7-40.7-11.7-59-22.3
					C686.9,112.8,686.7,113,686.9,113.1L686.9,113.1z"/>
			</g>
		</g>
		<g>
			<g>
				<path class="st3" d="M1034.7,390.8c13.1,22.7,21.1,49.3,23.7,75.3c1.4,13.2,1.2,26.6,0,39.8c-0.6,7.2-1.8,14.3-3.1,21.4
					c-1.2,6.7-3.3,13.6-3,20.4c0,1.1,1.6,1.7,2.2,0.6c3-6.4,3.7-13.9,5-20.9c1.2-7.1,2.3-14.1,3.2-21.2c1.8-13.9,2.1-27.9,0.4-41.8
					c-1.5-12.9-4.6-25.7-8.9-38c-4.6-12.9-11.1-24.6-18.6-36.1C1035.2,389.7,1034.3,390.2,1034.7,390.8L1034.7,390.8z"/>
			</g>
		</g>
		<g>
			<g>
				<path class="st3" d="M1053.7,539.5c-4.8,30.2-6.4,60.9-11.3,91.1c-2.4,14.7-5.4,29.3-8.5,43.9c-1.7,7.6-3.3,15.2-5.1,22.8
					c-1.7,7.1-4.8,14-4.2,21.3c0.1,1,1.4,1.5,2,0.6c3.8-6.3,4-13.8,5.6-20.9c1.6-7.6,3.4-15.2,5-22.8c3.2-14.9,6-29.9,8.5-44.9
					c4.9-30.1,7.8-60.5,8.5-91C1054,539.4,1053.7,539.3,1053.7,539.5L1053.7,539.5z"/>
			</g>
		</g>
		<g>
			<g>
				<path class="st3" d="M1026.2,709.6c-3.6,7.2-4.3,16.6-6.1,24.4c-2,8.1-4.2,16.2-6.4,24.2c-4.5,16.4-9.7,32.6-15.4,48.6
					c-5.9,16.4-12.9,32.4-20.3,48.1c-3.6,7.6-7.2,15.1-11.2,22.4c-2,3.7-4.1,7.3-6.2,10.9c-2.1,3.6-4.9,7.2-5.7,11.4
					c-0.1,0.7,0.6,1,1.1,0.6c3.4-2.6,5.2-6.8,7.3-10.4c2.1-3.6,4-7.3,6.1-11c4-7.3,8.1-14.6,11.8-22.1c7.7-15.3,14.4-31.2,20.7-47.1
					c6.3-16.1,11.7-32.5,16.2-49.3c2.2-8.4,4.1-16.8,5.8-25.3c1.6-7.9,4.6-17.1,3.6-25.1C1027.4,709.4,1026.6,709,1026.2,709.6
					L1026.2,709.6z"/>
			</g>
		</g>
		<g>
			<g>
				<path class="st3" d="M960.1,894.2c-14.5,13.6-27.3,28.6-40.5,43.4c-12.4,13.9-25.4,26.7-43.6,32.1c-17.7,5.2-36.6,6.2-54.6,10.1
					c-9.2,2-18.4,4.3-27.5,6.8s-18.7,4.8-27.1,9.2c-1.2,0.6-0.3,2.2,0.8,2c9.8-1.9,19.3-5.8,29-8.5s19.5-5,29.4-7
					c18.4-3.7,38-4.8,55.7-11.4c16.5-6.1,29-17.8,40.6-30.7c13.3-14.8,26.6-29.5,38.4-45.6C960.9,894.3,960.4,893.9,960.1,894.2
					L960.1,894.2z"/>
			</g>
		</g>
		<g>
			<g>
				<path class="st3" d="M792.1,990.2c62.1-29.2,122.1-66.8,170.3-116.1c6.5-6.6,12.7-13.5,18.7-20.6c5.8-6.9,12-14.1,16-22.2
					c0.5-1-0.7-2-1.5-1.2c-5.7,5.7-10.5,12.3-15.7,18.5s-10.7,12.3-16.3,18.1c-11.2,11.8-23.1,22.9-35.6,33.4
					c-26.4,22.2-55.3,41.5-84.7,59.4c-17,10.4-34.3,20.3-51.5,30.4C791.7,990,791.9,990.3,792.1,990.2L792.1,990.2z"/>
			</g>
		</g>
		<g>
			<g>
				<path class="st3" d="M989,841.6c17.8-17.6,32.7-38.6,47.8-58.4c13.5-17.6,30.4-36.7,33-59.5c0.1-1.2-1.6-1.3-2-0.3
					c-7.7,22.3-20.1,41.4-33.9,60.3c-14.4,19.8-31.1,37.8-45.7,57.3C987.9,841.4,988.6,841.9,989,841.6L989,841.6z"/>
			</g>
		</g>
		<g>
			<g>
				<path class="st3" d="M1056.4,444.8c10.7,34.2,19.7,69.1,24.2,104.7c2.2,17.3,4.3,35.1,4.5,52.5c0.1,8.6,0,17.2-0.4,25.9
					c-0.5,9.2-1.8,18.4-1.7,27.6c0,0.8,1.2,1,1.4,0.2c1.8-8.5,1.9-17.3,2.3-26c0.3-9.2,0.5-18.5,0.4-27.7c-0.2-18.3-0.6-36.2-3-54.3
					c-4.6-35.4-12.8-70.3-26.7-103.2C1057,443.9,1056.2,444.3,1056.4,444.8L1056.4,444.8z"/>
			</g>
		</g>
		<g>
			<g>
				<path class="st3" d="M1085.7,642.8c-5.1,16.1-9,32.2-12.8,48.6c-3.7,15.9-7.3,31.5-9.3,47.6c0,0.4,0.5,0.4,0.6,0.1
					c5.4-15.6,9-31.5,12.7-47.6s7.1-32.1,9.6-48.5C1086.5,642.5,1085.8,642.3,1085.7,642.8L1085.7,642.8z"/>
			</g>
		</g>
		<g>
			<g>
				<path class="st3" d="M1049.5,765.7c1.8,12.6-0.4,24.4-4.4,36.2c-0.3,0.9,1.1,1.5,1.6,0.7c5-8.4,9.4-16,11-25.9
					c1.4-9,0.6-18-2.4-26.5c-0.1-0.2-0.4-0.1-0.3,0.1c5.6,16.3,3.8,39-9.6,51.3c0.5,0.3,0.9,0.7,1.4,1c6.1-11.3,6.6-24.8,3.3-37
					C1049.9,765.2,1049.5,765.4,1049.5,765.7L1049.5,765.7z"/>
			</g>
		</g>
		<g>
			<g>
				<path class="st3" d="M984.7,851.9c23.2-32.9,37.1-70.3,53.6-106.7c8.5-18.6,16.5-37.4,25.8-55.6c9.5-18.6,19.3-37.1,26.5-56.7
					c4-11,7.5-22.2,10.1-33.6c2.6-11.5,3.5-23.4,4-35.2c0-0.3-0.5-0.4-0.6-0.1c-3,20.5-8.2,41.3-15.2,60.8
					c-7.2,20.1-17.5,39.1-27.2,58.1c-9,17.7-17.9,35.6-24.9,54.2c-6.8,18.2-13.6,36.4-21,54.3c-8.7,21-18.7,41.4-31.5,60.3
					C984.4,852,984.6,852.1,984.7,851.9L984.7,851.9z"/>
			</g>
		</g>
		<g>
			<g>
				<path class="st3" d="M1075.8,605.8c0.2,0,0.2-0.3,0-0.3S1075.6,605.8,1075.8,605.8L1075.8,605.8z"/>
			</g>
		</g>
		<g>
			<g>
				<path class="st3" d="M1070.5,661.3c-5.6-10.4-7.5-21.8-6.8-33.5c0-0.2-0.4-0.3-0.4-0.1c-1.8,11.9,0.9,23.5,6.8,33.8
					C1070.2,661.8,1070.6,661.6,1070.5,661.3L1070.5,661.3z"/>
			</g>
		</g>
		<g>
			<g>
				<path class="st3" d="M1071.2,664.9c2.6-7,1.7-16.2,0.5-23.4c-1.3-7.3-3.7-16.2-8.6-22c-0.7-0.9-2.4,0.1-1.9,1.1
					c2.8,7,6.6,13.2,8.3,20.6c1.9,8.1,0.9,15.5,1.3,23.6C1070.7,665.1,1071.1,665.1,1071.2,664.9L1071.2,664.9z"/>
			</g>
		</g>
		<g>
			<g>
				<path class="st3" d="M1055.2,538.3c1.3,7.6,2,14.8,4.8,22.1c2.6,6.6,6.3,12.6,9.8,18.8c0.1,0.2,0.4,0.1,0.3-0.1
					c-2.5-6.7-4.2-13.8-6.5-20.6c-2.3-6.9-5.7-13.4-8-20.3C1055.6,537.9,1055.2,538,1055.2,538.3L1055.2,538.3z"/>
			</g>
		</g>
		<g>
			<g>
				<path class="st3" d="M1084.4,557.7c-4.9-9.7-8.8-20.1-15.2-29c-0.2-0.2-0.6-0.1-0.5,0.2c3.7,10.3,10,19.4,15.3,29
					C1084.2,558.2,1084.6,558,1084.4,557.7L1084.4,557.7z"/>
			</g>
		</g>
		<g>
			<g>
				<path class="st3" d="M943.1,852.8c13.5-20.3,24.6-42.6,34.4-65c4.7-10.7,9.1-21.5,13.2-32.5c4.4-11.6,9.1-23.2,11.6-35.4
					c0.3-1.5-1.9-2.6-2.6-1.1c-4.8,10.6-8.2,21.8-12.3,32.7c-4.4,11.7-9.2,23.4-14.2,34.9c-9.8,22.3-20.6,43.9-31,65.9
					C942.1,852.8,942.8,853.3,943.1,852.8L943.1,852.8z"/>
			</g>
		</g>
		<g>
			<g>
				<path class="st3" d="M998.8,726.2c3.5-9.7,5.4-20.3,7.6-30.3c2.2-10.2,4.3-20.4,6.3-30.6c3.8-20,6.6-40.1,8.1-60.4
					c1.5-19.9,1.6-39.8-0.5-59.7c-1-9.4-2.4-18.7-4.4-28c-1.9-8.9-3.6-18.7-7.9-26.9c-0.2-0.3-0.8-0.2-0.8,0.2
					c1.2,9.2,4.4,18.2,6.1,27.4c1.7,9.6,2.9,19.4,3.6,29.1c1.5,19.5,1.3,39.2-0.3,58.7c-1.6,20.5-4.7,41-8.3,61.3
					c-1.8,10-3.7,19.9-5.7,29.8c-1.9,9.6-4.5,19.4-5.3,29.1C997.2,726.8,998.5,726.9,998.8,726.2L998.8,726.2z"/>
			</g>
		</g>
		<g>
			<g>
				<path class="st3" d="M1009.2,501.1c-2.1-17.8-5-35.4-9.5-52.8c-4.6-17.5-10.8-34.7-17.7-51.3c-6.6-15.7-13.9-31.2-22.6-45.9
					c-8.1-13.7-17.4-28.1-30.5-37.4c-0.6-0.4-1.4,0.4-1,1c9.8,13.3,20.3,25.7,28.6,40.1c8.5,14.7,15.8,30.2,22.2,46
					c13.1,32.1,23.2,66.4,29.5,100.5C1008.4,501.7,1009.2,501.6,1009.2,501.1L1009.2,501.1z"/>
			</g>
		</g>
		<g>
			<g>
				<path class="st3" d="M850.8,222.3c38.8,28.6,58.6,74.5,91,109.1c0.6,0.6,1.5-0.2,1.1-0.9c-12.7-23-29.7-43.9-45.3-65
					c-12.6-17.1-26.4-35.1-46.5-43.7C850.8,221.7,850.6,222.1,850.8,222.3L850.8,222.3z"/>
			</g>
		</g>
		<g>
			<g>
				<path class="st3" d="M836.5,225.6c4.9,0.3,9.6,0.8,14.4,1.8c3.7,0.7,7.3,2.6,11,2.8c0.5,0,0.6-0.6,0.4-0.9
					c-5.3-6.5-18.5-4.5-25.7-4.1C836.3,225.3,836.3,225.6,836.5,225.6L836.5,225.6z"/>
			</g>
		</g>
		<g>
			<g>
				<path class="st3" d="M855.9,225.6c9.2,19.6,20.5,38.2,30.9,57.2c5.1,9.4,10.3,18.7,15.4,28c5.3,9.6,10.3,19.5,16.7,28.4
					c0.3,0.4,1.1,0.2,0.9-0.4c-4-9.6-9.4-18.5-14.4-27.6c-5.3-9.6-10.7-19.2-16.1-28.8c-10.8-19.1-20.8-38.8-32.7-57.3
					C856.3,224.8,855.7,225.2,855.9,225.6L855.9,225.6z"/>
			</g>
		</g>
		<g>
			<g>
				<path class="st3" d="M819.7,195c30.4,20,59.8,40.6,85.3,66.7c26.7,27.3,48.3,58.4,65.9,92.2c5.1,9.8,10.1,19.6,14.7,29.6
					s8.1,21,14.8,29.7c0.5,0.6,1.4-0.1,1.2-0.7c-1.9-9.7-7.2-18.5-11.5-27.4c-4.4-9.1-8.7-18.2-13.3-27.2
					c-9.3-18.2-19.3-36.1-30.7-52.9c-20.3-29.9-44.9-56.3-73.5-78.5c-16.2-12.6-33.7-23.8-52.7-31.9
					C819.6,194.4,819.4,194.8,819.7,195L819.7,195z"/>
			</g>
		</g>
		<g>
			<g>
				<path class="st3" d="M993.6,397.8c2.3,8.4,6.2,16.5,9.5,24.6c3.4,8.2,6.7,16.3,10,24.6c6.3,16.1,11.9,32.6,16.8,49.1
					c5,16.8,9.2,33.9,12,51.2c1.5,9.5,2.8,18.9,3.4,28.5c0.5,8.2-0.6,17.6,1.7,25.5c0.2,0.6,1.1,0.6,1.3,0c2.4-8,0.7-18.2,0.1-26.4
					c-0.6-8.9-1.4-17.8-2.6-26.6c-2.4-17.7-6.2-35.2-11.4-52.4c-5.1-17-11.6-33.3-18.3-49.7c-3.1-7.7-6.4-15.4-9.7-23
					c-3.7-8.6-7.2-17.7-12.1-25.6C994.1,397.2,993.5,397.4,993.6,397.8L993.6,397.8z"/>
			</g>
		</g>
		<g>
			<g>
				<path class="st3" d="M947.9,288.8c10.3,16,20.3,32.3,31.1,48c10.4,15.2,21.4,30.1,32,45.2c9.6,13.7,19.6,27,28.3,41.2
					c9,14.7,14.1,31,22,46.2c0.5,1,1.8,0.2,1.7-0.7c-2.5-16.4-12.4-31.1-20.7-45.2c-8.5-14.6-17.8-28.8-27.4-42.7
					c-10.7-15.4-21.1-31.1-32-46.3c-11.2-15.6-23-30.7-34.6-46C948.1,288.3,947.7,288.5,947.9,288.8L947.9,288.8z"/>
			</g>
		</g>
		<g>
			<g>
				<path class="st3" d="M1035.2,383.5c0,1.2,0,2.4,0,3.6c0.4-0.1,0.8-0.1,1.3-0.2c-1.4-6.3-2.1-11.9-0.1-18.1
					c1.8-5.8,6.2-9.4,8.6-14.6c0.1-0.3-0.1-0.7-0.4-0.6c-5.8,1.7-9,9.2-10.4,14.6c-1.7,6.1-1.8,13.5,1.1,19.2
					c0.3,0.7,1.4,0.2,1.2-0.5c-0.3-1.2-0.6-2.3-1-3.5C1035.5,383.3,1035.2,383.4,1035.2,383.5L1035.2,383.5z"/>
			</g>
		</g>
		<g>
			<g>
				<path class="st3" d="M1036.4,392.5c4.6-0.1,7.5-4.7,8.4-8.7c1.7-7.3,1.2-15.4,1.3-22.9c0-0.2-0.4-0.3-0.4-0.1
					c-0.9,5.2-1.9,10.5-2.7,15.8c-0.4,2.7-0.4,5.4-1.2,8c-1,3.4-3.4,5-5.7,7.3C1036,392.2,1036.1,392.5,1036.4,392.5L1036.4,392.5z"
					/>
			</g>
		</g>
		<g>
			<g>
				<path class="st3" d="M993.6,308c-4.4-8.6-7-18.1-7.9-27.7c-0.9-9.3,0.8-18.2,2.1-27.3c0-0.3-0.4-0.6-0.6-0.2
					c-8.4,17.3-3.5,39.7,6.3,55.4C993.6,308.1,993.7,308,993.6,308L993.6,308z"/>
			</g>
		</g>
		<g>
			<g>
				<path class="st3" d="M985,275.1c-4.6-11-2.7-22.3,3.4-32.3c0.1-0.2-0.2-0.4-0.3-0.3c-7.9,8.9-8.5,22.3-3.3,32.7
					C984.7,275.5,985,275.3,985,275.1L985,275.1z"/>
			</g>
		</g>
		<g>
			<g>
				<path class="st3" d="M985.6,272.9c12.3-8.3,9.8-29.8,6.2-42c-0.1-0.4-0.7-0.2-0.7,0.2c1.8,12.2,5.7,32.7-5.8,41.3
					C985,272.6,985.3,273.1,985.6,272.9L985.6,272.9z"/>
			</g>
		</g>
		<g>
			<g>
				<path class="st3" d="M883.7,197.5c-1.6-3-4.1-5.4-5.7-8.4c-1.7-3.1-3-6.5-3.7-10c-1.7-7.7-0.2-14.3,1.6-21.7
					c0.2-0.9-1-1.4-1.5-0.6c-3.7,6.4-3.8,15.1-2.4,22.2c1.3,6.6,4.9,15.6,11.1,19C883.5,198.2,883.9,197.8,883.7,197.5L883.7,197.5z
					"/>
			</g>
		</g>
		<g>
			<g>
				<path class="st3" d="M884.2,193.3c0.8-12.6-1.8-24.4-8.1-35.3c-0.4-0.7-1.4-0.1-1,0.6c6,10.6,9.1,22.6,8.9,34.7
					C884,193.4,884.2,193.4,884.2,193.3L884.2,193.3z"/>
			</g>
		</g>
		<g>
			<g>
				<path class="st3" d="M880.8,194c-0.4-2.8-0.8-5.7-1.4-8.5c0-0.2-0.4-0.2-0.4,0.1c0.3,2.9,0.7,5.7,1.2,8.6
					C880.3,194.6,880.9,194.4,880.8,194L880.8,194z"/>
			</g>
		</g>
		<g>
			<g>
				<path class="st3" d="M860.4,184.4c-24-23.4-35.7-58.1-67.4-73.4c-0.3-0.1-0.5,0.3-0.2,0.4c29.7,16.8,40.1,53.7,67.2,73.5
					C860.3,185.2,860.7,184.7,860.4,184.4L860.4,184.4z"/>
			</g>
		</g>
		<g>
			<g>
				<path class="st3" d="M744.6,123.8c-0.5-2.6-2.7-5.2-3.9-7.6c-1.4-2.8-2.8-5.7-5-7.9c-2.9-2.9-8.2-4.7-11.4-1.4
					c-0.2,0.2,0,0.6,0.3,0.5c6.7-1.7,10.6,2.9,13.4,8.3c1.4,2.7,3.1,7.6,6.4,8.3C744.5,124.1,744.6,124,744.6,123.8L744.6,123.8z"/>
			</g>
		</g>
		<g>
			<g>
				<path class="st3" d="M735.2,109.5c0-3.2,2-5.4,4.5-6.9c0.2-0.1,0.1-0.5-0.2-0.4c-3.2,0.7-4.9,4.3-4.6,7.4
					C735,109.6,735.2,109.7,735.2,109.5L735.2,109.5z"/>
			</g>
		</g>
		<g>
			<g>
				<path class="st3" d="M730.7,105c-2.8-0.2-5.1-2.8-4.3-5.6c0.6-2.3,2.9-3.8,5.3-3.6c2.3,0.2,4.2,2,4.7,4.2c0.5,2,0,3.8-0.1,5.8
					c0,0.5,0.6,0.7,0.9,0.4c2.5-2.2,2-6.4,0.1-8.8c-1.9-2.3-5.3-3.6-8.1-2.4c-5.3,2.2-4.8,10.5,1.4,10.5
					C730.9,105.5,730.9,105.1,730.7,105L730.7,105z"/>
			</g>
		</g>
		<g>
			<g>
				<path class="st3" d="M726.9,107.1c2.7,0.4,5.4,0.8,8.1,1c0.2,0,0.3-0.4,0.1-0.4c-2.7-0.5-5.4-0.7-8.1-1
					C726.6,106.8,726.6,107.1,726.9,107.1L726.9,107.1z"/>
			</g>
		</g>
		<g>
			<g>
				<path class="st3" d="M738.9,102.3c-5.5,6.2-2.8,17.7,4,22c0.6,0.4,1.3-0.4,1-1c-2-3.1-4-6.3-4.7-10c-0.7-3.6-0.2-7.3,0.1-10.9
					C739.2,102.2,739,102.2,738.9,102.3L738.9,102.3z"/>
			</g>
		</g>
		<g>
			<g>
				<path class="st3" d="M936.5,298c11.6,14.4,23.3,29,34.1,44.1c10.6,14.7,19.7,30.4,28.9,46c18.5,31.5,32.8,64.9,43.1,100
					c2.8,9.6,6,19.2,8.2,29c2.3,10,2.9,20.6,6.1,30.3c0.4,1.2,2.3,1,2.3-0.3c-0.1-9-2.9-17.9-5.1-26.6c-2.2-8.9-3.8-18-6.4-26.9
					c-5.1-17.5-11-34.8-18.2-51.6c-7.2-16.9-14.7-33.8-23.3-50.1c-8.6-16.4-18.8-31.6-29.4-46.7c-5.9-8.3-12-16.4-18.4-24.3
					c-6.8-8.3-13.9-15.8-21.6-23.2C936.7,297.5,936.3,297.8,936.5,298L936.5,298z"/>
			</g>
		</g>
		<g>
			<g>
				<path class="st3" d="M947.9,272.6c4.5,5.2,10.5,8.3,16.3,11.8c5.9,3.6,11.9,7.9,17.5,11.9c0.6,0.4,1.6-0.3,1.3-1
					c-2.7-6.5-7.1-9.1-13.5-11.2c-7.8-2.6-15.5-5.7-21.2-11.8C948,272.1,947.7,272.4,947.9,272.6L947.9,272.6z"/>
			</g>
		</g>
		<g>
			<g>
				<path class="st3" d="M999.5,457.7c-0.7-10.1-6.8-18.6-14-25.4c-8.3-7.8-19.1-14.6-24.4-24.9c-0.1-0.3-0.6-0.1-0.5,0.2
					c3.6,9.5,9.9,15.9,17.5,22.3c9,7.4,18.8,15.6,20.4,27.8C998.6,458.3,999.5,458.3,999.5,457.7L999.5,457.7z"/>
			</g>
		</g>
		<g>
			<g>
				<path class="st3" d="M962.6,412.9c-7.8-4-13.2-9.6-18.7-16.3c-0.2-0.3-0.8,0-0.6,0.4c3,8.2,10.9,14.3,19,16.9
					C962.8,414,963.1,413.1,962.6,412.9L962.6,412.9z"/>
			</g>
		</g>
		<g>
			<g>
				<path class="st3" d="M963.6,415.4c0.5-9.2-13.1-22.3-22.2-21.5c-0.3,0-0.4,0.4-0.2,0.6c4.4,3.2,9.4,4.7,13.5,8.8
					c3.7,3.7,5.2,8.4,8.3,12.4C963.2,415.8,963.6,415.6,963.6,415.4L963.6,415.4z"/>
			</g>
		</g>
		<g>
			<g>
				<path class="st3" d="M989.9,488.9c6.3,7.5,11.6,15.5,16.2,24.1c4.3,8.1,7.6,16.7,12,24.7c0.4,0.7,1.3,0.2,1.2-0.5
					c-3-18.6-16.4-35.3-29.1-48.6C990,488.6,989.8,488.8,989.9,488.9L989.9,488.9z"/>
			</g>
		</g>
		<g>
			<g>
				<path class="st3" d="M1019.3,555.9c1.5-9.6,5.7-18.2,8.8-27.3c0.1-0.4-0.4-0.7-0.7-0.4c-6.8,7.5-8.4,17.8-8.3,27.7
					C1019.2,556,1019.3,556,1019.3,555.9L1019.3,555.9z"/>
			</g>
		</g>
		<g>
			<g>
				<path class="st3" d="M1016.1,759.4c2.6-7.4,2-17,2.1-24.8c0.2-8.2,0.2-16.5,0-24.7c-0.3-16.8-1.2-33.6-2.9-50.3
					c-3.3-33.1-9.4-66.6-19.6-98.2c-0.2-0.5-0.9-0.3-0.8,0.2c7.3,33.1,13.8,66.1,17.3,99.9c1.7,16.4,2.8,32.9,3.1,49.4
					c0.2,8.2,0.2,16.5,0,24.7c-0.2,7.6-1.5,16.5,0.1,23.9C1015.5,759.8,1016,759.7,1016.1,759.4L1016.1,759.4z"/>
			</g>
		</g>
		<g>
			<g>
				<path class="st3" d="M924.3,939.1c4.4-1.6,9.1-2.8,13.8-2.7c4.8,0.1,9.1,1.7,13.6,3.2c0.6,0.2,1.2-0.7,0.7-1.2
					c-7.7-6.5-20.5-5.9-28.5-0.2C923.5,938.6,923.8,939.3,924.3,939.1L924.3,939.1z"/>
			</g>
		</g>
		<g>
			<g>
				<path class="st3" d="M917.7,944.9c16.5-8.6,29,17.7,45.1,8.3c0.3-0.2,0.1-0.6-0.2-0.5c-11,4.2-19.1-5.1-28.4-9.1
					c-5.5-2.4-12-3.2-16.8,1C917.3,944.8,917.5,945,917.7,944.9L917.7,944.9z"/>
			</g>
		</g>
		<g>
			<g>
				<path class="st3" d="M921.3,941.2c8.9-2.1,16.6,0.1,25,2.9c0.5,0.2,0.9-0.5,0.5-0.8c-7.1-6-17.3-5.7-25.5-2.5
					C921,940.9,921.1,941.2,921.3,941.2L921.3,941.2z"/>
			</g>
		</g>
		<g>
			<g>
				<path class="st3" d="M922.5,938.9c20-10.9,36.3-29.8,49.8-47.8c7.8-10.4,14-22,22.3-32.1c7.7-9.5,16.9-15.6,27.9-20.6
					c0.5-0.2,0.3-1.2-0.3-1.1c-10.3,0.7-19.2,7.7-26,15c-8.8,9.3-15,20.5-22.3,30.9c-7.4,10.6-15.6,20.5-24.6,29.7
					c-8.7,8.9-18.4,16.7-27.3,25.3C921.7,938.6,922.1,939.2,922.5,938.9L922.5,938.9z"/>
			</g>
		</g>
		<g>
			<g>
				<path class="st3" d="M982.6,873.8c5.8-12,11.2-24,16.3-36.3c5.3-12.7,11.1-25.4,14.4-38.9c0.1-0.4-0.5-0.7-0.7-0.3
					c-6.7,11.5-11.2,24.1-16.2,36.4c-5.1,12.9-9.8,25.8-14.2,38.9C982.2,873.9,982.5,874,982.6,873.8L982.6,873.8z"/>
			</g>
		</g>
		<g>
			<g>
				<path class="st3" d="M766,1017.6c10.9-1.7,21.5-6.5,32-9.9s20.8-7.3,31.1-11.3c9.3-3.6,18.3-7.9,27.4-12
					c8.8-3.9,19.7-7.7,26.5-14.8c0.4-0.4,0-1.1-0.6-1c-9.4,2.3-18.1,8.3-26.9,12.3c-9.9,4.4-20.2,7.8-30.4,11.6
					c-9.8,3.6-19.6,7.2-29.3,11.2c-10,4.2-21,7.3-30.2,13C765.1,1017,765.5,1017.7,766,1017.6L766,1017.6z"/>
			</g>
		</g>
		<g>
			<g>
				<path class="st3" d="M822.1,997.4c11.7-8.1,23-16.7,35.3-24c12-7.2,24.3-14,35.8-22.1c22.2-15.6,42.6-34.9,60-55.8
					c9.7-11.7,19.9-24.4,26.2-38.4c0.3-0.7-0.6-1.2-1-0.6c-5.3,7-9.9,14.6-15,21.8c-5.4,7.5-11.1,14.8-17.2,21.8
					c-11.8,13.6-24.9,26.2-39.3,37.1c-14.2,10.8-29.4,20-44.7,29.1c-14.3,8.4-30.4,17.2-40.4,30.7
					C821.5,997.2,821.8,997.6,822.1,997.4L822.1,997.4z"/>
			</g>
		</g>
		<g>
			<g>
				<path class="st3" d="M801,1001.7c6.7-1.6,13.2-6.7,18.9-10.5c6-3.9,11.8-8,17.5-12.3c11.3-8.4,22.1-17.6,32.3-27.4
					c10.5-10.1,20.4-20.8,29.6-32c4.2-5.2,8.3-10.5,12.2-15.9c4.1-5.7,8.9-11.5,11.5-18.1c0.1-0.3-0.4-0.6-0.6-0.3
					c-4.6,4.8-8,10.7-11.9,16c-4.5,6.1-9.2,12.1-14.1,17.9c-9,10.7-18.7,20.9-28.9,30.4c-10.5,9.8-21.6,19.1-33.2,27.6
					c-5.7,4.2-11.6,8.3-17.6,12.2c-5.4,3.5-12.1,6.5-16.6,11.2C799.7,1001,800.2,1001.9,801,1001.7L801,1001.7z"/>
			</g>
		</g>
		<g>
			<g>
				<path class="st3" d="M912.8,901.3c8.3-12.7,16.2-25.6,23.8-38.7c7.3-12.5,15.6-24.8,21.1-38.2c0.4-0.9-1-1.3-1.5-0.6
					c-9,11.7-15.6,25.3-22.9,38.1c-7.3,12.9-14.4,25.9-21.1,39.1C912.1,901.3,912.6,901.6,912.8,901.3L912.8,901.3z"/>
			</g>
		</g>
		<g>
			<g>
				<path class="st3" d="M961.9,810c-7.7,11.2-18.7,16.4-31.9,18.3c-0.7,0.1-0.6,1.1,0,1.3c13.7,3.4,28.5-6.2,33-19.1
					C963.3,809.8,962.3,809.5,961.9,810L961.9,810z"/>
			</g>
		</g>
		<g>
			<g>
				<path class="st3" d="M956.9,813.3c-10.1-9.1-23.9-1.4-32.2,6.3c-0.3,0.3,0.1,0.8,0.4,0.6c9.4-5.9,20.5-14.6,31.5-6.6
					C956.8,813.6,957,813.4,956.9,813.3L956.9,813.3z"/>
			</g>
		</g>
		<g>
			<g>
				<path class="st3" d="M954.5,817.1c-7,0.1-13.8,1.4-20.5,3.4c-0.4,0.1-0.4,0.9,0.1,0.8c7-0.3,13.8-1.3,20.5-3.5
					C954.9,817.6,954.9,817.1,954.5,817.1L954.5,817.1z"/>
			</g>
		</g>
		<g>
			<g>
				<path class="st3" d="M711.4,971.5c5.2-1.3,10.4-2.2,15.5-3.7s10.1-3.1,15.2-4.8c10.4-3.3,20.9-6.7,31.3-10
					c20-6.4,40-12.7,59.8-19.6c18.8-6.6,37.2-14.2,55.4-22.4c17.2-7.7,33.9-15.9,49.9-26c17.2-10.9,33.4-23.3,47.1-38.5
					c0.7-0.8-0.4-1.9-1.1-1.1c-27,24.8-57.2,44.6-90.1,60.7c-18.5,9-38.1,15.5-57.5,22.3c-19.1,6.6-38.5,12.6-57.7,19
					c-11.3,3.8-22.7,7.4-34.1,11.1c-5.4,1.8-10.8,3.5-16.1,5.3c-6.1,2.1-11.7,4.7-17.7,7.1C710.9,971,711,971.6,711.4,971.5
					L711.4,971.5z"/>
			</g>
		</g>
		<g>
			<g>
				<path class="st3" d="M792.2,961.8c-3,1.5-3.5,5.9-1.4,8.4c2.6,3.1,7.5,2.7,10.4,0.3c3.2-2.8,4.2-8.2,1.5-11.6
					c-2.4-3.1-7.7-4-10.3-0.7c-0.4,0.5,0.1,1.2,0.7,0.9c2.5-1.4,5.8-1.4,7.9,0.8c2.2,2.4,1.8,6.4-0.3,8.7c-1.9,2.2-5.6,3.2-8.2,1.6
					c-3-1.8-3-6.4-0.1-8.2C792.5,961.9,792.4,961.7,792.2,961.8L792.2,961.8z"/>
			</g>
		</g>
		<g>
			<g>
				<path class="st3" d="M778.6,949c-5.9,4.8-11.4,9.3-16.1,15.4c-0.3,0.3,0.1,1,0.5,0.7c6.1-4.6,10.9-10,15.8-15.9
					C778.9,949.1,778.7,949,778.6,949L778.6,949z"/>
			</g>
		</g>
		<g>
			<g>
				<path class="st3" d="M846.8,926.6c-11.4-1.4-23-1.7-34.4-3.1c-0.2,0-0.3,0.3-0.1,0.4c11,3.6,23.1,5.7,34.6,3.7
					C847.7,927.6,847.4,926.6,846.8,926.6L846.8,926.6z"/>
			</g>
		</g>
		<g>
			<g>
				<path class="st3" d="M679,983.5c-15.7-10.9-36.9-12.2-53.5-2.4c-0.3,0.2,0,0.5,0.2,0.4c17.1-7.4,36.7-6.9,53,2.4
					C679.1,984.1,679.3,983.7,679,983.5L679,983.5z"/>
			</g>
		</g>
		<g>
			<g>
				<path class="st3" d="M674.6,984.2c-8.2-3.5-16.7-4.9-25.4-2.4c-0.5,0.1-0.4,0.8,0.1,0.8c8.4-0.2,16.8,0.1,25,2.2
					C674.7,985,675,984.4,674.6,984.2L674.6,984.2z"/>
			</g>
		</g>
		<g>
			<g>
				<path class="st3" d="M671.7,982.7c-7.8,0.6-15.5,1.3-23.3,2.2c-8.4,1-17.2,1.8-24.3-3.8c-0.4-0.3-1.1,0.1-0.7,0.6
					c4.8,6.3,12.2,6.9,19.6,6.1c9.6-1,19.2-2.9,28.7-4.7C671.9,983.1,671.9,982.7,671.7,982.7L671.7,982.7z"/>
			</g>
		</g>
		<g>
			<g>
				<path class="st3" d="M551.3,1004.3c3.2,2.2,5.5,5.2,8.6,7.5c2.9,2.2,5.5,3.4,9.1,4.2c0.6,0.1,0.9-0.5,0.6-1
					c-2.3-2.8-4.6-4.7-7.8-6.3C558.4,1006.9,554.7,1006.1,551.3,1004.3C551.3,1004.2,551.3,1004.3,551.3,1004.3L551.3,1004.3z"/>
			</g>
		</g>
		<g>
			<g>
				<path class="st3" d="M592,1011.7c18-1.6,35.9-4.6,54-5.7c18.2-1.1,36.2-3,54.4-3.3c17.1-0.2,34.1-0.6,51.1-2.5
					c15.8-1.7,32.8-4.1,46.7-12.2c0.4-0.2,0.1-0.8-0.3-0.7c-17,3.9-33.4,8.5-50.9,10.1c-16.7,1.6-33.5,1.8-50.3,2.5
					c-35,1.3-70.7,2.6-104.8,11.5C591.8,1011.4,591.8,1011.7,592,1011.7L592,1011.7z"/>
			</g>
		</g>
		<g>
			<g>
				<path class="st3" d="M420.7,1039.8c5.7,3.1,12.3,4.5,18.6,6.2c6.6,1.8,13.1,3.4,19.8,4.8c13.6,3.1,27.2,5.8,40.9,8
					c26.9,4.2,54,9.1,81.3,9.4c0.9,0,1.2-1.5,0.2-1.7c-27-4.6-54.4-6.8-81.3-12.1c-13.3-2.6-26.7-5.1-39.9-8
					c-6.6-1.4-13.3-2.9-19.9-4.4c-6.3-1.4-12.8-3.3-19.3-3.4C420.4,1038.7,420.2,1039.5,420.7,1039.8L420.7,1039.8z"/>
			</g>
		</g>
		<g>
			<g>
				<path class="st3" d="M565.5,1065.4c16.4,5.6,34.4,4.1,51.2,1.3c17.9-2.9,35.4-8.6,52.7-14c17.9-5.6,35.6-11.5,53.5-17.1
					c18.2-5.7,36.7-10.7,54.5-17.5c0.5-0.2,0.3-0.9-0.2-0.8c-17.9,4.3-35.4,10.4-52.9,15.9c-17.6,5.5-35.3,10.5-52.9,16
					c-17.2,5.3-34.3,10-51.9,13.3c-18,3.4-35.7,3.2-53.9,2.5C565.3,1064.9,565.2,1065.3,565.5,1065.4L565.5,1065.4z"/>
			</g>
		</g>
		<g>
			<g>
				<path class="st3" d="M763.3,1021.5c-6.5,7.9-13.9,15-20.5,23c-0.4,0.4,0.1,1.2,0.6,0.8c9.3-5.5,15.6-13.8,20.6-23.2
					C764.4,1021.6,763.7,1021,763.3,1021.5L763.3,1021.5z"/>
			</g>
		</g>
		<g>
			<g>
				<path class="st3" d="M332.9,999.2c14.1,12,30.9,20.4,47.8,27.6c8.5,3.6,17.1,6.7,26,9.2c8.8,2.5,17.7,5.4,26.8,6.5
					c0.5,0.1,0.5-0.6,0.1-0.8c-8.4-2.8-17.1-4.7-25.5-7.7c-9-3.2-18-6.8-26.8-10.7c-16.5-7.3-32-16.6-48-24.8
					C333,998.4,332.6,998.9,332.9,999.2L332.9,999.2z"/>
			</g>
		</g>
		<g>
			<g>
				<path class="st3" d="M997.4,732.1c-6.6,0-14,4.2-20.1,6.5c-6.9,2.6-12.9,5.7-19.3,9.1c-0.4,0.2-0.1,0.7,0.3,0.6
					c7.5-2,14.5-4.1,21.8-7c5.5-2.2,13.3-4.2,17.8-8.3C998.2,732.7,997.9,732.1,997.4,732.1L997.4,732.1z"/>
			</g>
		</g>
		<g>
			<g>
				<path class="st3" d="M966.6,745.8c-0.7-3.8-4.9-7.3-8.8-6.1c-0.3,0.1-0.5,0.6-0.1,0.8c1.5,0.6,3.2,1.1,4.6,2
					c1.5,1,2.8,2.1,3.9,3.6C966.3,746.2,966.6,746,966.6,745.8L966.6,745.8z"/>
			</g>
		</g>
		<g>
			<g>
				<path class="st3" d="M963,742.2c1.6,1.8,2.4,3.1,2.4,5.6c0,1.8-0.5,3.7-0.9,5.4c-0.1,0.4,0.3,0.8,0.7,0.7c5.7-1.7,3-11.2-2-11.9
					C963,742,962.9,742.1,963,742.2L963,742.2z"/>
			</g>
		</g>
		<g>
			<g>
				<path class="st3" d="M962.9,741.4c-6.1-6.3-16.1-0.2-13.9,8.1c0.9,3.5,3.7,6.1,7.4,6.3c3.6,0.2,7.7-2,8.6-5.7
					c0.1-0.2-0.3-0.4-0.4-0.2c-1.6,2.9-4,5.1-7.5,5.3c-3.7,0.1-6.5-2.4-7.4-5.9c-1.8-7.4,7.3-11.4,12.8-7.4
					C962.8,742.2,963.2,741.6,962.9,741.4L962.9,741.4z"/>
			</g>
		</g>
		<g>
			<g>
				<path class="st3" d="M958.5,738.7c2.2,1.8,4.4,2.8,5.9,5.4c1.4,2.4,1.6,5.6,1.7,8.3c0,0.4,0.6,0.5,0.8,0.2
					c2.1-3,1.5-6.4-0.2-9.4c-1.4-2.5-4.6-5.7-7.8-5.3C958.5,737.9,958.1,738.4,958.5,738.7L958.5,738.7z"/>
			</g>
		</g>
		<g>
			<g>
				<path class="st3" d="M971.4,719.3c1.3,1.9,3.4,3.5,3.6,5.9c0.2,2.8-1.8,5-3,7.4c-0.2,0.4-0.1,1,0.4,1.1
					c9.5,1.5,8.1-17.3-0.7-15.2C971.4,718.6,971.2,719,971.4,719.3L971.4,719.3z"/>
			</g>
		</g>
		<g>
			<g>
				<path class="st3" d="M978.2,725.3c9,1.9,20.2-1.3,24.9-9.8c0.2-0.3-0.2-0.6-0.4-0.3c-6.7,6.9-14.4,11.3-24.3,9.6
					C978,724.7,977.9,725.2,978.2,725.3L978.2,725.3z"/>
			</g>
		</g>
		<g>
			<g>
				<path class="st3" d="M980.7,724.8c4.3,1.5,10.4,1.3,14.6-0.6c3.4-1.6,7.7-6.4,5.3-10.2c-0.3-0.5-0.9-0.6-1.3-0.4
					c-2.7,1.3-3.7,4.5-5.5,6.8c-1.4,1.7-2.6,3.3-4.7,4.2c-2.4,1.1-5.8,0.5-8.2-0.1C980.5,724.4,980.5,724.7,980.7,724.8L980.7,724.8
					z"/>
			</g>
		</g>
		<g>
			<g>
				<path class="st3" d="M975,722.3c-2.9-5.1-10.7-4.2-12,1.7c-1.2,5.7,5.7,10.2,10.2,6.4c0.3-0.2-0.1-0.6-0.4-0.5
					c-4.1,1.9-9.4-0.8-8.4-5.7c1.1-5,7.4-5.7,10.1-1.6C974.8,722.7,975.1,722.5,975,722.3L975,722.3z"/>
			</g>
		</g>
		<g>
			<g>
				<path class="st3" d="M984.5,634.8c-2.3,2.2-2.8,6.3-0.5,8.6c2.6,2.7,7.3,2.4,9.8-0.3s2.2-7.2-0.1-10c-2.7-3.1-7.5-3.4-10.4-0.5
					c-0.4,0.4,0.1,0.8,0.5,0.7c2.5-1.1,6.1-1.3,8.2,0.8c1.9,1.9,2.1,5.4,0.1,7.3c-1.8,1.6-4.8,2-6.6,0.2c-1.8-1.8-2.3-4.5-0.7-6.6
					C984.9,634.9,984.6,634.7,984.5,634.8L984.5,634.8z"/>
			</g>
		</g>
		<g>
			<g>
				<path class="st3" d="M971.4,465c-4.4-4.1-8.8,5.7-6.4,9.2c1.6,2.3,4.5,2,6.4,0.4c3-2.5,2.3-6.7,1.7-10.1c-0.3,0.1-0.7,0.3-1,0.4
					c2.2,3.6,7.6,8.2,11.5,3.7c3.9-4.6-2.9-8.2-6.8-7.7c-2.5,0.3-3.4,2.1-2.3-0.3c0.5-1.1,1.1-2.1,1.3-3.4c0.2-1.8-0.4-3.9-2.2-4.8
					c-1.9-0.9-4,0.1-5.2,1.6c-2.2,2.6-1.2,6.2-0.3,9.2c0.3-0.1,0.7-0.3,1-0.4c-1.8-3.4-8-10.4-11.6-4.5c-3.2,5.3,4.5,7.7,8.3,6.9
					c0.4-0.1,0.2-0.6-0.1-0.6c-1,0-1.9-0.1-2.9-0.4c-3.1-0.1-3.5-2.4-1.2-6.8c2.6,0.3,5.3,3.7,6.5,5.9c0.3,0.5,1.2,0.2,1-0.4
					s-0.4-1.2-0.6-1.7c-1.4-6.5-0.2-8.4,3.6-5.7c2.7,0.1,3.5,1.1,2.1,3c-0.4,1.5-1.1,2.9-2.3,3.9c-0.3,0.3,0,0.9,0.4,0.8
					c3.5-1.2,3.3-2.1,4.7,2.5c2,4.1,1.6,4.7-1.1,1.9c-1.4-0.7-2.4-1.7-3-3.1c-0.3-0.6-1.1-0.2-1,0.4c0.3,1.5,0.5,3,0.5,4.5
					c-1.7,6.1-3.4,7.1-5.3,2.8c-2-1.3-2.3-2.9-1-4.7c0.7-1.8,2.2-2.5,4.7-2C971.3,465.6,971.7,465.2,971.4,465L971.4,465z"/>
			</g>
		</g>
		<g>
			<g>
				<path class="st3" d="M922.1,157.3c-3.1,0.9-7.9,3.6-6.1,7.7c1.2,2.7,4.6,2.6,6.6,0.8c1.6-1.5,1.1-3.3,1.9-5
					c-0.2-1.4-0.1-1.8,0.1-1.2c0.4,0.9,0.9,1.7,1.5,2.6c0.6,0.8,1.3,1.6,2.1,2.1c2.2,1.4,5.8,1.6,7.3-1c1.7-3-1-6.3-3.8-7.2
					c-1.3-0.4-2.7-0.6-4-0.4c-3.1,0.4-1.3,0.4-1,0.1c1.4-1.5,3.2-2.1,3.7-4.3c0.7-2.9-1.1-5.5-4.2-5c-4.8,0.7-4.9,6.5-4.5,10.2
					c0.3,0,0.7-0.1,1-0.1c-0.7-3.7-1.5-8.1-5.2-10c-2.2-1.1-5.2-1.2-7,0.7c-2,2.2-1.1,5.7,0.7,7.7c2.6,2.9,6.5,2.9,10,2.7
					c0.3,0,0.4-0.4,0.1-0.5c-1.4-0.2-2.9-0.5-4.3-0.9c-0.5-0.1-0.9-0.3-1.4-0.4c-4.4-1.2-5-3.1-1.8-5.7c0.6-3,1.8-3.7,3.4-2.2
					c1.8,0.8,2.9,2.2,3.3,4.4c0.5,1.4,0.8,2.9,1,4.4c0.1,0.6,1.1,0.5,1-0.1c-0.1-1-0.7-5.4,0.1-5.8c1.7,1,3.5,2,5.2,3.1
					c-1.2,0.9-2.4,1.7-3.7,2.3c-0.4,0.2-0.1,0.8,0.3,0.7c1.5-0.3,3.1-0.4,4.6-0.4c6.1,1,6.9,3.7,2.3,7.9c-3.6,0.5-5.7-3.8-7.1-6.4
					c-0.2-0.3-0.6-0.1-0.6,0.2c-0.1,2.5,1,5-2.3,2.5c-2.7-2-1.6-1.6,0.7-2.8C922.6,157.7,922.4,157.2,922.1,157.3L922.1,157.3z"/>
			</g>
		</g>
		<g>
			<g>
				<path class="st3" d="M643.5,83.1c-2.8,0.9-6.2,2.4-6.8,5.7c-0.3,1.7,0.2,3.9,1.9,4.7c2,1,4.4,0,5.7-1.7c0.8-1.1,1.2-2.5,1.3-3.8
					c0,0.1,0-2.8-0.1-2.7c0.1,0,2.1,2.2,2.3,2.4c3.4,2.8,11.9,3.3,11.5-3.1c-0.2-2.4-2.4-4.2-4.7-4.6c-3.2-0.5-6,1.6-8,3.8
					c-0.5,0.5,0.1,1.3,0.7,0.9c2.9-1.8,10.9-10.3,4.1-12.6c-6.5-2.3-7,6.9-6.4,10.7c0.1,0.8,1.4,0.6,1.3-0.2c-0.4-4-2.3-11.2-8-9.5
					s-2.4,8.4,0.1,11.2c0.4,0.4,1.1-0.1,0.8-0.6c-0.5-0.8-1-1.6-1.4-2.4c-1.6-2-1.2-3.4,1.4-4.3c2.1-3.2,3.8-2.6,5,1.6
					c0.4,1.3,0.6,2.7,0.7,4c0.4-0.1,0.9-0.1,1.3-0.2c-0.3-1.3-0.4-2.5-0.4-3.8c-0.3-3.9,1.7-3.9,5.8,0c0,1.9-3.7,4.1-5.1,5
					c0.2,0.3,0.5,0.6,0.7,0.9c1.1-1.2,2.2-2.3,3.8-2.8c0.9-0.6,1.9-0.7,3-0.2c4-0.1,3.8,2.3-0.8,7.3c-3.1,0.5-6.3-3.2-8.1-5.3
					c-0.2-0.3-0.8-0.1-0.8,0.3c0.1,0.9,0.2,1.8,0.2,2.7c0.5,2.7-0.7,3.8-3.6,3.3c-4.1,2-4.8,0.8-2-3.7c1.4-1.2,2.9-2.1,4.6-2.6
					C644,83.5,643.8,83,643.5,83.1L643.5,83.1z"/>
			</g>
		</g>
		<g>
			<g>
				<path class="st3" d="M452,177.7c-3.5-0.8-7.5-1.4-10.3,1.5c-1.7,1.8-2.3,4.6-0.4,6.5c1.6,1.5,4.2,1.7,6.1,0.9
					c3.7-1.4,5-5.7,6.1-9.1c0.2-0.5-0.6-0.9-0.9-0.4c-3.2,5.7,4.7,10.9,8.3,5.4c3.8-5.8-4.4-10.8-8.9-6.3c0.3,0.3,0.6,0.6,1,1
					c1.6-1.9,2.5-4.4,1.1-6.7c-1.1-1.8-3.5-2.8-5.5-1.9c-4.3,1.9-2.1,8.7,2.4,6.6c0.3-0.1,0.1-0.6-0.2-0.6c0.4,0.5,0.8,1,1.3,1.6
					c-0.6,0.7,0.3,1.6,1,1c1.6-1.5,7-2.9,7.2,1.4c-0.5,1.5-1.1,2.9-1.6,4.4c-4.9,0.7-6.5-1.1-5.1-5.3c-0.3-0.1-0.6-0.3-0.9-0.4
					c-1.2,3.7-3,9.2-7.9,8.7c-5.1-0.5-3.2-6.8,0.9-7.9c2-0.5,4.3-0.2,6.3,0C452.1,178,452.2,177.8,452,177.7L452,177.7z"/>
			</g>
		</g>
		<g>
			<g>
				<path class="st3" d="M334.7,211.6c-7.9,11-10.4,27.8-8.4,41c1.3,8.7,8.4,23.6,19.7,20.7c0.3-0.1,0.2-0.4,0-0.5
					c-6-2-10.9-3.7-14.3-9.4c-3.2-5.2-4-11.5-4.2-17.5c-0.4-12.5,3.4-22.7,7.7-34.1C335.2,211.5,334.9,211.4,334.7,211.6
					L334.7,211.6z"/>
			</g>
		</g>
		<g>
			<g>
				<path class="st3" d="M329.9,264.2c6.4,6.5-4.7,13.8-6.5,19.8c-0.1,0.3,0.3,0.4,0.4,0.2c3.6-4.8,15.2-14.6,6.3-20.3
					C329.9,263.7,329.7,264,329.9,264.2L329.9,264.2z"/>
			</g>
		</g>
		<g>
			<g>
				<path class="st3" d="M328.8,274.9c-0.9,4.1-1.9,8.7,1.2,12.2c2.4,2.8,6.6,3.1,9.7,1.3c7.6-4.4,4.6-16-2.1-19.5
					c-0.3-0.2-0.6,0.2-0.4,0.5c3.8,4.5,8.5,10.7,3.6,16.4c-3.2,3.6-8.8,3.3-11-1.2c-1.4-2.8-1.1-6.6-0.7-9.6
					C329,274.8,328.8,274.8,328.8,274.9L328.8,274.9z"/>
			</g>
		</g>
		<g>
			<g>
				<path class="st3" d="M332.9,267.2c0.8,3.4,1.7,6.8,3.3,9.9c0.1,0.3,0.5,0.1,0.4-0.2c-0.7-3.5-2.1-6.6-3.6-9.8
					C333,267,332.9,267.1,332.9,267.2L332.9,267.2z"/>
			</g>
		</g>
		<g>
			<g>
				<path class="st3" d="M335.6,203.8c-0.2,0.3-0.4,0.5-0.6,0.9c-0.1,0.3,0.2,0.5,0.4,0.2c0.2-0.3,0.3-0.6,0.4-1
					C335.8,203.8,335.7,203.7,335.6,203.8L335.6,203.8z"/>
			</g>
		</g>
		<g>
			<g>
				<path class="st3" d="M338.4,198.5c-7.9,12.1-1,35.1,11.9,41.5c0.3,0.1,0.5-0.2,0.3-0.4c-4.6-5.9-9.2-10.6-11.5-18
					c-2.5-8-0.8-14.9-0.2-22.9C338.9,198.4,338.6,198.3,338.4,198.5L338.4,198.5z"/>
			</g>
		</g>
		<g>
			<g>
				<path class="st3" d="M349.5,238.4c-1.6,4.4-2.6,9.9,0.9,13.8c2.4,2.7,6.7,3.7,9.4,0.7c2.5-2.7,2.2-6.9-0.1-9.6
					c-3.4-4-9.1-4.4-13.9-3.2c-0.3,0.1-0.2,0.5,0.1,0.5c3.4,0.1,7.1-0.1,10.2,1.7c3.2,1.8,5.5,6.3,2.6,9.5c-2.9,3.3-7.5,0.1-8.7-3.2
					c-1.1-3.1-0.5-6.9-0.2-10.2C349.8,238.3,349.5,238.3,349.5,238.4L349.5,238.4z"/>
			</g>
		</g>
		<g>
			<g>
				<path class="st3" d="M349.1,192.9c-6.8,11.7,14.3,21.9,22.3,24.8c0.2,0.1,0.4-0.3,0.2-0.4c-4.1-2.8-8.3-5.5-12.4-8.3
					c-5.4-3.7-12-8.5-9.7-15.9C349.6,192.8,349.2,192.6,349.1,192.9L349.1,192.9z"/>
			</g>
		</g>
		<g>
			<g>
				<path class="st3" d="M213.1,375.7c-1.9,0.4-4,1-4.9,2.9c-0.6,1.3-0.5,3,0.6,3.9c1.3,1.1,2.9,0.6,4-0.3c2.2-1.8,2-5.9,4.9-6.9
					c-0.3-0.2-0.5-0.4-0.8-0.6c0.1,2.4,0.4,5.3,2.4,6.9c1.4,1.1,3.7,1.3,5.1,0.1c1.2-1.2,1.1-3,0.2-4.3c-1.8-2.5-5.1-2.1-7.7-1.6
					c0.1,0.4,0.2,0.8,0.3,1.2c2.5-0.8,5.3-1.8,6.3-4.3c0.7-1.6,0.6-3.6-0.8-4.7c-1.6-1.4-3.9-1.1-5.5,0.1c-2,1.5-2.7,4.1-3.2,6.4
					c0.5,0,1,0,1.5,0c-0.4-2.6-1-5.5-3.8-6.6c-1.7-0.6-3.6-0.1-4.4,1.6s-0.1,3.9,1.2,5.1c2,1.8,4.7,1.6,7.2,1.2
					c0.6-0.1,0.4-0.9-0.1-0.9c-1.5-0.2-6.4-0.5-6.5-2.8c-0.5-0.8-0.2-1.3,1.2-1.5c1.4-1.7,2.4-1.2,3.1,1.3c0.4,0.9,0.5,2,0.6,2.9
					c0.1,0.8,1.3,0.7,1.5,0c0.5-2.5,1.2-5.9,4.3-6.2c3.3-0.2,3.1,3,1.3,4.9c-1.2,1.2-2.7,1.7-4.3,2.2c-0.8,0.3-0.5,1.4,0.3,1.2
					c1.6-0.3,2.9-0.4,4.5,0.1c1.6,0,2,0.8,1.3,2.2c0.4,1.7-0.2,2.3-1.9,1.7c-2.5-0.9-2.8-4.1-2.9-6.3c0-0.4-0.4-0.8-0.8-0.6
					c-1.8,0.6-2.6,1.8-3.3,3.5c-0.4,0.9-1,3.3-2.1,3.6c-1-0.4-2.1-0.7-3.1-1.1c0.2-1.3,0.8-2.2,1.8-2.8c0.7-0.6,1.6-1,2.4-1.4
					C213.3,375.8,213.2,375.6,213.1,375.7L213.1,375.7z"/>
			</g>
		</g>
		<g>
			<g>
				<path class="st3" d="M214.4,227c-1.4,1.4-3,3-2.9,5.1c0.1,1.5,1.1,3,2.7,3.2c4.4,0.4,3.2-5.5,2.3-7.7c-0.2,0.3-0.4,0.5-0.6,0.8
					c3.2,0.7,5.9,4.8,9.4,3.9c2-0.5,3.1-2.3,2.8-4.3c-0.9-6.1-8.7-3.7-12.2-1.9c0.3,0.3,0.7,0.7,1,1c1.8-3.7,4-11.8-2.7-12.3
					c-2-0.1-3.5,1.2-4,3.1c-0.8,2.9,1.1,5.3,2.9,7.4c0.7,0.8,1.9-0.2,1.4-1.1c-1.7-3.2-6.3-3.2-7.8,0.2c-1.9,4.5,2.5,7.7,6.5,7.2
					c0.3,0,0.5-0.6,0.1-0.7c-1.4-0.2-2.6-0.6-3.7-1.7c-0.8-0.4-1.2-1-1.2-1.9c-1-2.2,0.5-2.9,4.5-2.3c0.5-0.4,1-0.7,1.4-1.1
					c-1-1.1-1.8-2.3-2.4-3.7c2.7-3.7,4.3-4.2,4.9-1.3c1.1,2.7,0,4.9-1.2,7.4c-0.3,0.6,0.3,1.3,1,1c1.3-0.7,2.6-1.4,3.9-1.7
					c1.2-0.4,2.4-0.4,3.5-0.1c1,4.8,0.3,6.4-1.9,4.9c-2.2-0.7-3.7-2.6-6.1-3.1c-0.3-0.1-0.8,0.2-0.6,0.6c0.3,0.7,0.5,1.3,0.7,2
					C212.6,229.9,212,229,214.4,227C214.6,227.1,214.5,227,214.4,227L214.4,227z"/>
			</g>
		</g>
		<g>
			<g>
				<path class="st3" d="M165.2,886.5c-2.7,0.6-5.9,1.6-7.1,4.4c-0.7,1.6-0.6,3.5,0.8,4.8c1.6,1.4,3.7,0.9,4.8-0.8
					c0.2-0.3,1-3.5,0.9-3.4c-0.1,0,0.9,2.2,1.3,3c1.9,3.2,8.4,5.9,9.5,0.5c1.1-5.5-5.6-7-9.3-4.9c-0.7,0.4-0.1,1.4,0.6,1.1
					c3.7-1.7,10.3-6.7,5.6-11.2c-1.5-1.5-3.9-1.3-5.6-0.2c-2.5,1.8-2.6,5-2,7.8c0.2,0.9,1.7,0.7,1.6-0.2c-0.3-2.7-0.6-5.7-2.7-7.6
					c-1.6-1.4-4.2-2-6.1-0.7c-1.8,1.3-2.1,3.7-1.3,5.6c1,2.5,3.4,3.7,5.8,4.7c0.6,0.2,1.2-0.7,0.6-1.1c-1.3-1.1-4-2.8-4.1-4.6
					c-0.7-1.1-0.1-1.8,1.6-2c1.8-1.9,3.1-1.3,3.9,1.6c0.5,1.2,0.6,2.7,0.7,4.1c0.5-0.1,1.1-0.1,1.6-0.2c-0.3-1-0.4-2-0.2-3
					c-0.1-2.4,1.7-3.5,5.3-3.2c1.3,1.2,1.2,3.5,0.4,4.9c-1.1,2.2-3.7,3.3-5.8,4.3c0.2,0.4,0.4,0.7,0.6,1.1c1.4-0.8,3.3-1.6,4.9-1.1
					c5.7,1.6,2,8.6-2.6,6.5c-2.6-1.2-3.4-4-4.5-6.4c-0.1-0.2-0.4-0.1-0.4,0.1c0.4,1.8-0.3,1.9-2.2,0.3c-2.8-0.4-3-1.1-0.6-2.2
					c1.2-0.7,2.6-1.1,3.9-1.5C165.4,886.7,165.4,886.5,165.2,886.5L165.2,886.5z"/>
			</g>
		</g>
		<g>
			<g>
				<path class="st3" d="M294.9,891.7c-2.5,0.8-4.7,0.1-6.6-2.1c4.4,1,6.6-0.1,6.4-3.3c0.4-1,0-5.2,0.8-5.6c5.1-2.4,2.4,4.5,2.1,5.2
					c-0.7,2.3-1.3,4.5-2,6.8c-0.2,0.6,0.5,0.8,0.9,0.5c2-1.6,6.3-3.6,8.9-2c0.8,1.7,1.6,3.4,2.4,5.1c-0.5,1.6-1.5,2.4-3,2.4
					c-3.8,0.9-6.8-2.1-9.2-4.6c-0.7-0.8-1.9,0.4-1.2,1.2c-1.9,0.5-3.9,0.9-5.8,1.4c0.9-2.3,2.4-3.7,4.5-4.4c1.4-0.7,2.9-1,4.5-1.4
					c0.7-0.2,0.4-1.2-0.3-1.1c-4,0.6-8.6,2.1-10,6.4c-0.9,2.6-0.1,5.4,2.5,6.7c5.8,2.9,9.7-4.3,5.8-8.6c-0.4,0.4-0.8,0.8-1.2,1.2
					c2.7,2.7,5.9,5.9,10.1,5.2c2.2-0.4,4.3-1.8,4.7-4.1c0.5-2.5-1.2-5.2-3.4-6.3c-3.5-1.8-7.3,0-10.1,2.3c0.3,0.2,0.6,0.3,0.9,0.5
					c0.7-2.6,6-14.1,1.4-15.7c-4.6-1.6-4.5,10.3-4.9,12.4c-0.1,0.5,0.5,0.8,0.9,0.4c3.8-5-2.8-10.7-7.2-6.1c-4.8,5.1,3,11.8,8.3,8.6
					C295.9,892.4,295.5,891.5,294.9,891.7L294.9,891.7z"/>
			</g>
		</g>
		<g>
			<g>
				<path class="st3" d="M555.2,975c-4.2-5.1-11.4,1.7-7,6.3c5.6,5.9,13.5-2.3,9.7-8.7c-0.4,0.3-0.9,0.7-1.3,1
					c3.5,4.5,11.3,2,10-4.1c-1.3-6.2-9.3-5.1-10.8,0.4c-0.3,1.1,1.2,1.4,1.6,0.4c1.4-3.4,3-12.7-3.9-11.6c-6.1,1-3.1,8.6-1.1,11.7
					c0.4-0.3,0.9-0.7,1.3-1c-2.4-2.4-5.4-5.2-9.1-4.6c-2.3,0.4-4.5,2.2-4.6,4.7c-0.2,7.9,12.9,5.1,16.8,3.2c0.3-0.2,0.1-0.7-0.3-0.6
					c-2.6,0.9-7.1,2-9.7,0.8c-0.5-0.1-1-0.2-1.4-0.3c0.6-1.9,1.2-3.9,1.9-5.8c1-0.5,4.3,2.9,5.3,3.8c0.7,0.7,1.9-0.2,1.3-1
					c-1.3-2-3-2.6,0.7-2.8c3.4-0.1,2.2,0.6,1.2,3.1c0.5,0.1,1.1,0.3,1.6,0.4c1.6-4.4,4.2-4.2,7.7,0.5c-3,3.9-5.4,4.4-7.3,1.6
					c-0.6-0.7-1.8,0.2-1.3,1c2.2,3.5,0.9,6.1-3.8,8c-1.7-6.2-1.1-8.1,2-5.8C555.1,976.1,555.5,975.4,555.2,975L555.2,975z"/>
			</g>
		</g>
		<g>
			<g>
				<path class="st3" d="M799.2,1034.1c-2.8-0.6-6.3-1.5-8.6,0.8c-1.5,1.5-1.8,3.7-0.4,5.3c4.7,5.4,9.5-2.9,10.6-6.6
					c-0.3,0-0.7,0.1-1,0.1c1.7,3,3.8,6.5,7.6,7c2.4,0.3,4.7-0.8,5.5-3.2c1.8-5.4-5-8.3-8.5-4.4c0.4,0.3,0.7,0.6,1.1,0.9
					c2.2-3.4,2.8-7.1,2.1-11c-0.1-0.5-0.8-0.7-1.1-0.5c-3.2,2.4-5,5.5-5.1,9.6c0.6,0,1.2,0,1.8,0c0-3.3-0.1-7.3-2.7-9.7
					c-1.8-1.7-4.8-2.5-7-1.1s-2.4,4.2-1.4,6.4c1.7,3.4,5.3,3.8,8.7,3.9c0.5,0,0.6-0.7,0.1-0.9c-0.9-0.2-1.8-0.5-2.6-0.8
					s-1.5-0.7-2.3-1c0.6-6.1,1.8-7.5,3.6-4.2c1.7,2.3,1.8,4.6,1.8,7.4c0,1.1,1.7,1.1,1.8,0c0.1-3.6,1.5-6.2,4.3-8.4
					c-0.4-0.1-0.9-0.2-1.3-0.3c0.7,3.6,0.1,6.8-1.8,9.9c-0.4,0.7,0.6,1.5,1.1,0.9c1.1-1.3,3.5-1.9,5.1-1.2c0.5,0.6,0.9,1.2,1.4,1.8
					c0.6,2.9-0.5,4.1-3.3,3.7c-3.2,0.5-3.7,0.4-5.6-2c-0.9-1.1-1.5-2.2-2.2-3.4c-0.3-0.4-0.9-0.3-1,0.1c-0.6,1.7-1.3,4.4-2.8,5.5
					c-1.1,0.5-2.2,1-3.3,1.5c-0.1-5.3,1.7-7.3,5.5-5.8C799.3,1034.7,799.5,1034.2,799.2,1034.1L799.2,1034.1z"/>
			</g>
		</g>
		<g>
			<g>
				<path class="st3" d="M1003.7,872.6c-3,2.5-2.4,7.6,1.4,9.1c4.1,1.5,8.3-1.5,8.8-5.7c0.6-5-3.4-9.1-8.2-10
					c-3.4-0.6-9.1,1.3-6.6,5.7c0.2,0.3,0.7,0.1,0.6-0.3c-1.2-5.1,5.9-4.2,8.3-3c2.5,1.2,4.3,3.5,4.2,6.4c-0.1,2.9-2.3,5.5-5.4,5.3
					c-3.4-0.2-5.1-4.6-2.7-7C1004.7,872.8,1004.1,872.3,1003.7,872.6L1003.7,872.6z"/>
			</g>
		</g>
		<g>
			<g>
				<path class="st3" d="M1044,626.4c-2.4-2.1-5.6-4.2-9-2.9c-2.1,0.8-3.9,3.2-3.5,5.5c0.4,2.5,2.8,3.7,5.2,3.4
					c3.9-0.5,5.6-4.6,7-7.7c0.1-0.2,0-0.6-0.2-0.6c-2.6-0.4-5.2-1.2-7.5-2.5c-2.2-1.3-6.3-4.3-6.8-7c-1-1.3-0.2-1.9,2.4-1.7
					c0.4,0.7,0.8,1.4,1.1,2c0.8,1.4,1.5,2.7,2.2,4.1c1.6,3,3.4,5.8,5.2,8.7c0.2,0.3,0.7,0,0.5-0.3c-1.8-3.8-3.7-7.5-5.7-11.1
					c-1-1.8-2.2-5.7-4.5-6.5c-3-1-3.5,2.5-2.7,4.6c1.5,4.2,5.8,7.6,9.9,9.2c1,0.4,2.7,0.5,3.5,0.9c1.4-0.2,1.7,0.4,1,1.9
					c-0.5,1.1-1.3,2.1-2.1,2.9c-1.4,1.3-3.1,1.8-4.9,1.4c-2.6-4.1-1.8-6.4,2.3-6.9C1039.7,623.6,1042.1,625.1,1044,626.4
					C1044,626.8,1044.2,626.5,1044,626.4L1044,626.4z"/>
			</g>
		</g>
		<g id="Layer_5">
		</g>
	</g>
	<g id="Layer_6">
		<g>
			<g>
				<g>
					<g>
						<path class="st2" d="M1040.2,357c0.4,7,9.9,16.7,11.5,20.3c5.1,11.5-15.1,14-16.9,18.5c-0.5-4.8-19.3-12.9-11.4-22.5
							C1025.8,370.4,1037.1,364.4,1040.2,357z"/>
					</g>
				</g>
			</g>
		</g>
		<g>
			<g>
				<g>
					<g>
						<path class="st2" d="M993.8,217.9c-0.7,5.7,1,12.5,3.3,18.3s4.9,10.6,5.7,13.2c1.2,4.3,1.1,7.8,0,11.1
							c-0.5,1.6-1.3,3.1-2.2,4.5c-0.9,1.4-1.9,2.8-2.9,4.1c-4.2,5.2-9.3,9.8-9.5,13.8c-0.8-3.8-6.2-7.7-10.5-13.2
							c-2.1-2.8-4-6-4.8-9.7c-0.4-1.8-0.5-3.8-0.3-5.9c0.2-2.1,0.8-4.3,1.8-6.6c1.2-2.8,4.8-7.4,8.7-12.6
							C987,229.7,991.2,223.9,993.8,217.9z"/>
					</g>
				</g>
			</g>
		</g>
		<g>
			<g>
				<g>
					<g>
						<path class="st2" d="M880.1,153.4c2.4,7.5,14.4,15.2,17,18.5c8.3,11-10.4,19.7-10.7,25.2c-1.9-5.1-22.3-8.2-17.5-21
							C870.2,172.3,879.3,162.3,880.1,153.4z"/>
					</g>
				</g>
			</g>
		</g>
		<g>
			<g>
				<g>
					<g>
						<path class="st2" d="M401.6,108c-2,0.5-3.9,1.7-5.7,3.3c-0.9,0.8-1.6,1.7-2.4,2.6c-0.7,1-1.4,2-1.9,3c-0.6,1-1.1,2-1.5,3
							c-0.4,0.9-0.8,1.9-1.1,2.8c-0.3,0.8-0.6,1.6-0.8,2.3c-0.2,0.7-0.4,1.2-0.6,1.6c-1.3,2.5-2.7,3.6-4.7,3.8c-1,0.1-2,0.1-3.2,0
							s-2.4-0.4-3.6-0.6c-1.3-0.3-2.6-0.5-3.9-0.8c-0.6-0.1-1.3-0.2-1.9-0.3s-1.2-0.1-1.8-0.2c-1.2-0.1-2.3-0.1-3.2,0
							c-0.9,0.2-1.7,0.5-2.2,0.9c0.3-0.6,0.4-1.4,0.3-2.4c0-1-0.2-2.1-0.4-3.3c-0.4-2.5-0.8-5.4-0.7-8.5c0.1-1.5,0.3-3.1,0.7-4.6
							c0.4-1.5,1.1-2.9,2-4.2c0.9-1.3,2.2-2.4,3.7-3.3c1.5-0.8,3.3-1.5,5.4-1.7c2.6-0.3,7.5,0.7,12.6,2.3c2.6,0.8,5.2,1.7,7.7,2.5
							c1.2,0.4,2.5,0.8,3.7,1.1C399.3,107.5,400.4,107.8,401.6,108z"/>
					</g>
				</g>
			</g>
		</g>
		<g>
			<g>
				<g>
					<g>
						<path class="st2" d="M123.1,349.2c3.2-8.5-1-23.2-0.7-28c1-15.5,21.7-12.2,25.7-17.2c-2,5.9,12,21.5-0.5,30.6
							C143.9,337.5,129.9,341.3,123.1,349.2z"/>
					</g>
				</g>
			</g>
		</g>
		<g>
			<g>
				<g>
					<g>
						<path class="st2" d="M162.7,689.4c-1.4-9.1-12.3-20-14.4-24.3c-6.7-14.1,12.9-21.6,13.9-27.9c1.2,6.2,21,13,14.6,27.2
							C175,668.8,164.7,679.1,162.7,689.4z"/>
					</g>
				</g>
			</g>
		</g>
		<g>
			<g>
				<path class="st4" d="M443.8,983.3"/>
			</g>
		</g>
		<g>
			<g>
				<g>
					<g>
						<path class="st2" d="M404.1,948.5c2.1,2.9,6.6,4.8,10.9,5.7s8.3,0.8,10,1.1c2.7,0.6,3.9,1.9,4.4,3.7c0.3,0.9,0.4,1.9,0.3,3.1
							c0,1.1-0.1,2.3-0.3,3.6c-0.2,1.3-0.3,2.6-0.5,3.8c-0.2,1.3-0.3,2.5-0.4,3.6s0,2.2,0.1,3c0.1,0.9,0.4,1.5,0.8,2
							c-1.1-0.4-3,0.1-5.2,0.8c-2.3,0.7-5,1.6-7.8,2.1c-1.4,0.2-2.8,0.3-4.2,0.2c-1.4-0.1-2.7-0.4-4-0.9c-1.2-0.5-2.3-1.4-3.3-2.4
							c-0.9-1.1-1.6-2.5-2-4.3c-0.5-2.1-0.2-6.6,0.4-11.4C404,957.4,404.8,952.5,404.1,948.5z"/>
					</g>
				</g>
			</g>
		</g>
		<g>
			<g>
				<g>
					<g>
						<path class="st2" d="M788,919.3c3.3,0.6,7.7-1.1,11.2-3.4c3.6-2.3,6.4-5.1,7.7-6c2.3-1.3,3.9-1.2,5.3-0.2
							c0.7,0.5,1.4,1.2,2.1,2.1c0.7,0.9,1.3,1.8,2,2.9c2.6,4.1,5.4,9.2,7.7,9.4c-1,0.4-2,2-3.2,4s-2.5,4.4-4.2,6.7
							c-1.7,2.2-3.7,4.1-6.1,4.9c-1.2,0.4-2.5,0.5-3.8,0.4c-1.3-0.2-2.7-0.8-4.1-1.8c-1.7-1.2-4.2-4.7-6.7-8.6
							C793.5,925.7,790.9,921.7,788,919.3z"/>
					</g>
				</g>
			</g>
		</g>
		<g>
			<g>
				<g>
					<g>
						<path class="st2" d="M908.1,820.9c8.2-2.5,16.8-14.7,20.4-17.3c12.1-8.5,21.6,10,27.5,10.3c-5.6,1.9-9.1,22.5-23.1,17.9
							C928.7,830.6,917.8,821.6,908.1,820.9z"/>
					</g>
				</g>
			</g>
		</g>
		<g>
			<g>
				<g>
					<g>
						<path class="st2" d="M976.2,962.8c-1.7-2-4.1-3.5-6.7-4.5c-1.3-0.5-2.7-0.9-4-1.2c-1.4-0.2-2.8-0.4-4.1-0.5
							c-1.3-0.1-2.6,0-3.8,0.1c-0.6,0-1.2,0.1-1.7,0.1c-0.6,0.1-1.1,0.2-1.6,0.2c-1,0.2-1.9,0.3-2.7,0.4c-0.8,0.2-1.5,0.3-2,0.3
							c-3.3,0.1-5.6-0.5-7.5-2.1c-0.9-0.7-1.8-1.6-2.7-2.7c-0.8-1-1.7-2.1-2.5-3.3c-0.4-0.6-0.8-1.2-1.3-1.8
							c-0.4-0.6-0.9-1.2-1.3-1.7c-0.4-0.6-0.9-1.1-1.3-1.7c-0.5-0.5-0.9-1-1.4-1.5c-0.9-0.9-1.9-1.8-2.8-2.3
							c-0.9-0.5-1.9-0.9-2.7-0.9c0.8-0.2,1.6-0.8,2.5-1.5s1.8-1.5,2.8-2.5c2-2,4.4-4.2,7.5-6.1c1.5-0.9,3.1-1.6,4.9-2.2
							c1.8-0.6,3.7-0.8,5.7-0.8s4,0.5,6.1,1.2c1,0.4,2,1,3,1.6c1,0.7,2,1.4,2.9,2.3c0.6,0.6,1.2,1.3,1.9,2.2c0.3,0.4,0.7,0.9,1,1.4
							s0.7,1.1,1,1.7c0.7,1.2,1.4,2.4,2.1,3.7c0.6,1.3,1.3,2.8,2,4.2c1.2,3,2.4,6,3.5,9.1c0.6,1.5,1,3,1.6,4.4
							C975.1,960,975.5,961.5,976.2,962.8z"/>
					</g>
				</g>
			</g>
		</g>
		<g>
			<g>
				<g>
					<g>
						<path class="st2" d="M975.4,480.9c3.2,1.1,8.1,0.8,12.8,0.6c4.7-0.2,9.4-0.3,11.5,0.3c3.4,1,5.4,3.1,6.3,5.5
							c0.5,1.2,0.6,2.6,0.7,3.9c0,1.4-0.2,2.8-0.5,4.1c-0.6,2.7-1.6,5.4-2.5,7.6c-0.8,2.2-1.4,4-1,5.1c-1.7-1.8-7.5-1-12.6-0.8
							c-2.6,0.1-5,0.1-6.8-0.5c-0.9-0.3-1.7-0.8-2.2-1.5c-0.6-0.7-1-1.7-1.2-3c-0.3-1.6,0.2-5.3-0.1-9.6
							C979.4,488.5,978.2,483.8,975.4,480.9z"/>
					</g>
				</g>
			</g>
		</g>
		<g>
			<g>
				<g>
					<g>
						<path class="st2" d="M929.3,383.8c6.9,3.9,21,1.6,25.1,2.3c13.6,2.6,5.8,21.6,9.2,25.9c-4.8-2.5-22,9-27.2-3.7
							C934.8,404.5,934.7,391,929.3,383.8z"/>
					</g>
				</g>
			</g>
		</g>
		<g>
			<g>
				<g>
					<g>
						<path class="st2" d="M765.8,87.6c9,5.6,25.5,5.1,30.7,6.6c16.8,5.1,11,25.7,16,31.2c-6.3-3.6-24.8,6.8-33.4-8.6
							C776.4,112.2,773.7,96.7,765.8,87.6z"/>
					</g>
				</g>
			</g>
		</g>
		<g>
			<g>
				<g>
					<g>
						<path class="st2" d="M252.8,929.8c8.7,0.1,20.6-8.8,25-10.2c14.2-4.3,17.7,16.2,23.3,18.3c-6,0.1-15.7,18.6-27.7,9.9
							C269.6,945.3,261.9,933.4,252.8,929.8z"/>
					</g>
				</g>
			</g>
		</g>
		<g>
			<g>
				<g>
					<g>
						<path class="st2" d="M298.4,1027.6c-3-2-7.9-2.9-12.7-4.1c-4.7-1.1-9.4-2.4-11.3-3.6c-3.1-2-4.5-4.7-4.8-7.5
							c-0.1-1.4,0.1-2.8,0.4-4.2c0.4-1.4,0.9-2.7,1.6-4c0.6-1.3,1.4-2.5,2.2-3.6c0.8-1.1,1.5-2.2,2.3-3.2c0.7-1,1.3-1.9,1.8-2.6
							c0.5-0.8,0.7-1.5,0.7-2.1c0.6,1.1,2.3,2,4.5,2.7s4.9,1.3,7.4,2c1.3,0.3,2.5,0.7,3.6,1.1c1.1,0.4,2.1,0.9,2.9,1.4
							c0.8,0.6,1.4,1.3,1.8,2.2s0.5,2,0.4,3.3c-0.1,1.6-1.6,5.2-2.2,9.5C296.1,1019,296.2,1024,298.4,1027.6z"/>
					</g>
				</g>
			</g>
		</g>
		<g>
			<g>
				<g>
					<g>
						<path class="st2" d="M99.8,755.6c-2.4-10-14.4-20.9-16.9-25.5c-8.2-15,10.5-25.1,10.9-32.3c1.8,6.8,22.3,12.3,17.5,28.7
							C109.8,731.5,100.7,744,99.8,755.6z"/>
					</g>
				</g>
			</g>
		</g>
	</g>
	<g id="Layer_7">
		<path class="st5" d="M1000.7,166.6"/>
		<path class="st5" d="M193.7,269.6c11.4,23.8,30,14,52-3c-11.5,23-19.3,51.1,5.6,55.5c28.5,5,28.3-25.9,23.2-52.2
			c13.8,22.5,39.3,44.6,53.2,27.7c23-28-11.3-41.8-41-50c25-12.5,55.5-35.5,30.9-56.7c-20.8-17.8-38.5,14.5-48.5,40
			c-6.2-27.2-19.3-61.3-42.4-45.3c-21.1,14.7-1.3,37.5,18.7,54C214.7,239.6,182.7,246.6,193.7,269.6"/>
		<path class="st3" d="M279.2,248.8c15.6-7.8,33.3-20.7,17.9-33.9c-12.9-11.1-24,9.1-30.2,24.9c-3.9-17-12-38.2-26.4-28.2
			c-13.2,9.1-0.8,23.4,11.6,33.7c-16.5-4.1-37.5-5.5-35.2,15.1c1.8,15.7,20.5,9.6,35.4,2c-7.2,14.3-12.1,31.6,3.5,34.4
			c17.8,3.1,17.6-16.2,14.5-32.6c8.6,14,21.6,28.6,33.2,17.3C321.1,264.2,297.7,253.9,279.2,248.8z"/>
		<path class="st6" d="M272.3,250.6c8.9-4.5,19-11.8,10.2-19.3c-7.4-6.3-13.7,5.2-17.2,14.2c-2.2-9.7-6.9-21.8-15.1-16.1
			c-7.5,5.2-0.5,13.3,6.6,19.2c-9.4-2.3-21.4-3.1-20.1,8.6c1,9,11.7,5.5,20.2,1.2c-4.1,8.2-6.9,18,2,19.6c10.1,1.8,10-9.2,8.3-18.5
			c4.9,8,12.3,16.3,18.9,9.8C296.2,259.4,282.9,253.5,272.3,250.6z"/>
		<path class="st5" d="M103.7,837.6c11.4,23.8,30,14,52-3c-11.5,23-19.3,51.1,5.6,55.5c28.5,5,28.3-25.9,23.2-52.2
			c13.8,22.5,39.3,44.6,53.2,27.7c23-28-11.3-41.8-41-50c25-12.5,55.5-35.5,30.9-56.7c-20.8-17.8-38.5,14.5-48.5,40
			c-6.2-27.2-19.3-61.3-42.4-45.3c-21.1,14.7-1.3,37.5,18.7,54C124.7,807.6,92.7,814.6,103.7,837.6"/>
		<path class="st3" d="M189.2,816.8c15.6-7.8,33.3-20.7,17.9-33.9c-12.9-11.1-24,9.1-30.2,24.9c-3.9-17-12-38.2-26.4-28.2
			c-13.2,9.1-0.8,23.4,11.6,33.7c-16.5-4.1-37.5-5.5-35.2,15.1c1.8,15.7,20.5,9.6,35.4,2c-7.2,14.3-12.1,31.6,3.5,34.4
			c17.8,3.1,17.6-16.2,14.5-32.6c8.6,14,21.6,28.6,33.2,17.3C231.1,832.2,207.7,821.9,189.2,816.8z"/>
		<path class="st6" d="M182.3,818.6c8.9-4.5,19-11.8,10.2-19.3c-7.4-6.3-13.7,5.2-17.2,14.2c-2.2-9.7-6.9-21.8-15.1-16.1
			c-7.5,5.2-0.5,13.3,6.6,19.2c-9.4-2.3-21.4-3.1-20.1,8.6c1,9,11.7,5.5,20.2,1.2c-4.1,8.2-6.9,18,2,19.6c10.1,1.8,10-9.2,8.3-18.5
			c4.9,8,12.3,16.3,18.9,9.8C206.2,827.4,192.9,821.5,182.3,818.6z"/>
		<path class="st5" d="M602.7,1037.6c11.4,23.8,30,14,52-3c-11.5,23-19.3,51.1,5.6,55.5c28.5,5,28.3-25.9,23.2-52.2
			c13.8,22.5,39.3,44.6,53.2,27.7c23-28-11.3-41.8-41-50c25-12.5,55.5-35.5,30.9-56.7c-20.8-17.8-38.5,14.5-48.5,40
			c-6.2-27.2-19.3-61.3-42.4-45.3c-21.1,14.7-1.3,37.5,18.7,54C623.7,1007.6,591.7,1014.6,602.7,1037.6"/>
		<path class="st3" d="M688.2,1016.8c15.6-7.8,33.3-20.7,17.9-33.9c-12.9-11.1-24,9.1-30.2,24.9c-3.9-17-12-38.2-26.4-28.2
			c-13.2,9.1-0.8,23.4,11.6,33.7c-16.5-4.1-37.5-5.5-35.2,15.1c1.8,15.7,20.5,9.6,35.4,2c-7.2,14.3-12.1,31.6,3.5,34.4
			c17.8,3.1,17.6-16.2,14.5-32.6c8.6,14,21.6,28.6,33.2,17.3C730.1,1032.2,706.7,1021.9,688.2,1016.8z"/>
		<path class="st6" d="M681.3,1018.6c8.9-4.5,19-11.8,10.2-19.3c-7.4-6.3-13.7,5.2-17.2,14.2c-2.2-9.7-6.9-21.8-15.1-16.1
			c-7.5,5.2-0.5,13.3,6.6,19.2c-9.4-2.3-21.4-3.1-20.1,8.6c1,9,11.7,5.5,20.2,1.2c-4.1,8.2-6.9,18,2,19.6c10.1,1.8,10-9.2,8.3-18.5
			c4.9,8,12.3,16.3,18.9,9.8C705.2,1027.4,691.9,1021.5,681.3,1018.6z"/>
		<path class="st5" d="M969.7,701.6c11.4,23.8,30,14,52-3c-11.5,23-19.3,51.1,5.6,55.5c28.5,5,28.3-25.9,23.2-52.2
			c13.8,22.5,39.3,44.6,53.2,27.7c23-28-11.3-41.8-41-50c25-12.5,55.5-35.5,30.9-56.7c-20.8-17.8-38.5,14.5-48.5,40
			c-6.2-27.2-19.3-61.3-42.4-45.3c-21.1,14.7-1.3,37.5,18.7,54C990.7,671.6,958.7,678.6,969.7,701.6"/>
		<path class="st3" d="M1055.2,680.8c15.6-7.8,33.3-20.7,17.9-33.9c-12.9-11.1-24,9.1-30.2,24.9c-3.9-17-12-38.2-26.4-28.2
			c-13.2,9.1-0.8,23.4,11.6,33.7c-16.5-4.1-37.5-5.5-35.2,15.1c1.8,15.7,20.5,9.6,35.4,2c-7.2,14.3-12.1,31.6,3.5,34.4
			c17.8,3.1,17.6-16.2,14.5-32.6c8.6,14,21.6,28.6,33.2,17.3C1097.1,696.2,1073.7,685.9,1055.2,680.8z"/>
		<path class="st6" d="M1048.3,682.6c8.9-4.5,19-11.8,10.2-19.3c-7.4-6.3-13.7,5.2-17.2,14.2c-2.2-9.7-6.9-21.8-15.1-16.1
			c-7.5,5.2-0.5,13.3,6.6,19.2c-9.4-2.3-21.4-3.1-20.1,8.6c1,9,11.7,5.5,20.2,1.2c-4.1,8.2-6.9,18,2,19.6c10.1,1.8,10-9.2,8.3-18.5
			c4.9,8,12.3,16.3,18.9,9.8C1072.2,691.4,1058.9,685.5,1048.3,682.6z"/>
		<path class="st5" d="M847.7,284.6c11.4,23.8,30,14,52-3c-11.5,23-19.3,51.1,5.6,55.5c28.5,5,28.3-25.9,23.2-52.2
			c13.8,22.5,39.3,44.6,53.2,27.7c23-28-11.3-41.8-41-50c25-12.5,55.5-35.5,30.9-56.7c-20.8-17.8-38.5,14.5-48.5,40
			c-6.2-27.2-19.3-61.3-42.4-45.3c-21.1,14.7-1.3,37.5,18.7,54C868.7,254.6,836.7,261.6,847.7,284.6"/>
		<path class="st3" d="M933.2,263.8c15.6-7.8,33.3-20.7,17.9-33.9c-12.9-11.1-24,9.1-30.2,24.9c-3.9-17-12-38.2-26.4-28.2
			c-13.2,9.1-0.8,23.4,11.6,33.7c-16.5-4.1-37.5-5.5-35.2,15.1c1.8,15.7,20.5,9.6,35.4,2c-7.2,14.3-12.1,31.6,3.5,34.4
			c17.8,3.1,17.6-16.2,14.5-32.6c8.6,14,21.6,28.6,33.2,17.3C975.1,279.2,951.7,268.9,933.2,263.8z"/>
		<path class="st6" d="M926.3,265.6c8.9-4.5,19-11.8,10.2-19.3c-7.4-6.3-13.7,5.2-17.2,14.2c-2.2-9.7-6.9-21.8-15.1-16.1
			c-7.5,5.2-0.5,13.3,6.6,19.2c-9.4-2.3-21.4-3.1-20.1,8.6c1,9,11.7,5.5,20.2,1.2c-4.1,8.2-6.9,18,2,19.6c10.1,1.8,10-9.2,8.3-18.5
			c4.9,8,12.3,16.3,18.9,9.8C950.2,274.4,936.9,268.5,926.3,265.6z"/>
		<g>
			<g>
				<path class="st7" d="M258.9,251.1c1,0,1-1.6,0-1.6S257.8,251.1,258.9,251.1L258.9,251.1z"/>
			</g>
		</g>
		<g>
			<g>
				<path class="st7" d="M269.3,246.3c0.2,0.1,0.4,0.4,0.6,0.6c0.2,0.1,0.3,0.2,0.5,0.3c0.3,0.2,0.8,0.3,1.2,0.3
					c0.3,0,0.5-0.3,0.3-0.5c-0.2-0.3-0.6-0.6-0.9-0.8c-0.2-0.1-0.3-0.1-0.5-0.2c-0.1,0-0.2-0.1-0.4-0.1c-0.2,0-0.4,0-0.5,0
					C269.3,245.7,269.1,246.1,269.3,246.3L269.3,246.3z"/>
			</g>
		</g>
		<g>
			<g>
				<path class="st7" d="M264.4,254.5h0.1c-0.1-0.1-0.2-0.2-0.3-0.2C264.3,254.3,264.3,254.3,264.4,254.5c0.3,0.6,1.4,0.3,1.4-0.5
					s-1.1-1.1-1.5-0.4l-0.1,0.1c0.1-0.1,0.2-0.2,0.3-0.2h-0.1C263.9,253.6,263.9,254.3,264.4,254.5L264.4,254.5z"/>
			</g>
		</g>
		<g>
			<g>
				<path class="st7" d="M255.6,254c0.4-0.2,0.8-0.5,1.2-0.7c0.2-0.1,0.1-0.4-0.1-0.4c-0.5,0-1,0.1-1.5,0.2
					C254.5,253.2,254.9,254.3,255.6,254L255.6,254z"/>
			</g>
		</g>
		<g>
			<g>
				<path class="st7" d="M272.9,254.9c-0.2-0.1,0.1,0.1,0.1,0.1c0.2,0.2-0.1-0.1,0.1,0c0-0.1,0-0.3-0.1-0.4v-0.1
					c-0.2-0.2-0.5,0.1-0.4,0.3c0.2,0.6,0.9,0.6,1.3,0.3c0.7-0.6-0.1-1.6-0.9-1.3C272.6,254,272.5,254.6,272.9,254.9L272.9,254.9z"/>
			</g>
		</g>
		<g>
			<g>
				<path class="st7" d="M262.5,261.2L262.5,261.2c0.3,0.1,0.5,0.1,0.7-0.1c0.3-0.3,0.5-0.7,0.6-1.1c0-0.2-0.1-0.3-0.3-0.3
					c-0.4,0.1-0.8,0.3-1.1,0.6c-0.2,0.2-0.2,0.4-0.1,0.7C262.4,261,262.4,261.1,262.5,261.2L262.5,261.2z"/>
			</g>
		</g>
		<g>
			<g>
				<path class="st7" d="M276,257.2c0.7,0,0.7-1,0-1C275.4,256.2,275.4,257.2,276,257.2L276,257.2z"/>
			</g>
		</g>
		<g>
			<g>
				<path class="st7" d="M260.9,245.8C260.9,245.8,260.9,245.7,260.9,245.8C260.8,245.7,260.8,245.8,260.9,245.8L260.9,245.8z"/>
			</g>
		</g>
		<g>
			<g>
				<path class="st7" d="M269.1,250.5c0.2,0,0.3,0,0.5-0.1c0.1,0,0.1-0.1,0-0.2c-0.2-0.1-0.3-0.1-0.5-0.1
					C268.9,250.1,268.9,250.5,269.1,250.5L269.1,250.5z"/>
			</g>
		</g>
		<g>
			<g>
				<path class="st7" d="M275.6,246c0.4,0,0.4-0.6,0-0.6C275.2,245.4,275.2,246,275.6,246L275.6,246z"/>
			</g>
		</g>
		<g>
			<g>
				<path class="st7" d="M276.9,235.3c0.2,0,0.2-0.4,0-0.4C276.7,235,276.7,235.3,276.9,235.3L276.9,235.3z"/>
			</g>
		</g>
		<g>
			<g>
				<path class="st7" d="M274.3,237.4c-0.2-0.1-0.3-0.3-0.5-0.4c-0.1-0.1-0.2,0-0.1,0.1c0.1,0.2,0.3,0.3,0.4,0.5
					C274.2,237.6,274.3,237.5,274.3,237.4L274.3,237.4z"/>
			</g>
		</g>
		<g>
			<g>
				<path class="st7" d="M254.4,232.5c0.1,0,0.1-0.1,0-0.1C254.3,232.3,254.3,232.5,254.4,232.5L254.4,232.5z"/>
			</g>
		</g>
		<g>
			<g>
				<path class="st7" d="M249.8,252.3c0.3,0,0.3-0.4,0-0.4C249.6,251.9,249.6,252.3,249.8,252.3L249.8,252.3z"/>
			</g>
		</g>
		<g>
			<g>
				<path class="st7" d="M244.3,257.2c0.1,0,0.1-0.1,0-0.1V257.2L244.3,257.2z"/>
			</g>
		</g>
		<g>
			<g>
				<path class="st7" d="M260.9,259.8c0.4,0,0.4-0.6,0-0.6C260.5,259.2,260.5,259.8,260.9,259.8L260.9,259.8z"/>
			</g>
		</g>
		<g>
			<g>
				<path class="st7" d="M278.3,267c0.2,0,0.3,0,0.5-0.1c0.1,0,0.1-0.2,0-0.2c-0.2,0-0.3,0-0.5-0.1C278.1,266.6,278.1,267,278.3,267
					L278.3,267z"/>
			</g>
		</g>
		<g>
			<g>
				<path class="st7" d="M166.4,807.1L166.4,807.1c0.1-0.3,0.1-0.7-0.2-0.9c0,0-0.1,0-0.1-0.1c-0.5-0.2-1.1,0.3-0.8,0.8l0.1,0.1
					c0.2,0.3,0.6,0.4,0.8,0.2C166.3,807.3,166.4,807.2,166.4,807.1L166.4,807.1z"/>
			</g>
		</g>
		<g>
			<g>
				<path class="st7" d="M165.4,801.5c-0.1,0.3,0,0.6,0.2,0.9c0.1,0.1,0.3,0.1,0.3,0c0.1-0.3,0.3-0.5,0.2-0.9
					C165.9,801.2,165.5,801.2,165.4,801.5L165.4,801.5z"/>
			</g>
		</g>
		<g>
			<g>
				<path class="st7" d="M160.9,803.4c0.2-0.1,0.4-0.2,0.6-0.2c0.1,0,0.1-0.3,0-0.3c-0.2-0.1-0.4-0.2-0.6-0.2
					C160.2,802.4,160.2,803.6,160.9,803.4L160.9,803.4z"/>
			</g>
		</g>
		<g>
			<g>
				<path class="st7" d="M168.6,812.4c0.3-0.1,0.5-0.2,0.5-0.6c0-0.1-0.1-0.2-0.2-0.2c-0.3,0-0.5,0.2-0.6,0.5
					C168.3,812.3,168.4,812.4,168.6,812.4L168.6,812.4z"/>
			</g>
		</g>
		<g>
			<g>
				<path class="st7" d="M170.3,806.7c0.2,0,0.2-0.3,0-0.3C170.1,806.4,170.1,806.7,170.3,806.7L170.3,806.7z"/>
			</g>
		</g>
		<g>
			<g>
				<path class="st7" d="M163.6,806.5c0.4,0,0.4-0.7,0-0.7C163.1,805.8,163.1,806.5,163.6,806.5L163.6,806.5z"/>
			</g>
		</g>
		<g>
			<g>
				<path class="st7" d="M169.6,822.6c-0.2,0.3-0.5,0.5-0.7,0.8c-0.1,0.2,0,0.2-0.2,0.3c-0.1,0.1-0.1,0.2-0.2,0.4
					c-0.1,0.2,0.2,0.5,0.4,0.4s0.3-0.1,0.4-0.2c0.3-0.2,0,0,0.3-0.2c0.3-0.1,0.6-0.4,0.8-0.7C171.2,822.9,170.2,822,169.6,822.6
					L169.6,822.6z"/>
			</g>
		</g>
		<g>
			<g>
				<path class="st7" d="M175.8,811.6c0.4,0.4,0.8,0.9,1.3,1.1c0.1,0,0.2-0.1,0.2-0.2c-0.2-0.5-0.8-0.9-1.1-1.3
					C175.9,811,175.5,811.4,175.8,811.6L175.8,811.6z"/>
			</g>
		</g>
		<g>
			<g>
				<path class="st7" d="M167.8,837.4c0.5,0,0.8,0,1.2-0.1c0.2,0,0.2-0.3,0-0.3c-0.4-0.1-0.8-0.2-1.2-0.1
					C167.4,836.8,167.4,837.4,167.8,837.4L167.8,837.4z"/>
			</g>
		</g>
		<g>
			<g>
				<path class="st7" d="M178.5,818.2c-0.4-0.4-0.8-0.7-1.2-1.1c-0.2-0.1-0.3,0.1-0.2,0.2c0.4,0.4,0.7,0.8,1.1,1.2
					C178.3,818.8,178.7,818.5,178.5,818.2L178.5,818.2z"/>
			</g>
		</g>
		<g>
			<g>
				<path class="st7" d="M163.1,822.2c0.4,0,0.8-0.1,1.2-0.1c0.2,0,0.2-0.3,0-0.3c-0.4,0-0.8-0.1-1.2-0.1
					C162.8,821.6,162.8,822.2,163.1,822.2L163.1,822.2z"/>
			</g>
		</g>
		<g>
			<g>
				<path class="st7" d="M185.2,826.8c0.6,0.2,1.2,0.4,1.8,0.6c0.6,0.2,1.2,0.3,1.8,0.4c0.1,0,0.3-0.2,0.1-0.3
					c-0.6-0.2-1.1-0.5-1.6-0.7c-0.6-0.2-1.2-0.4-1.9-0.6C185,826.1,184.9,826.6,185.2,826.8L185.2,826.8z"/>
			</g>
		</g>
		<g>
			<g>
				<path class="st7" d="M192.3,829C192.3,829,192.3,828.9,192.3,829C192.2,828.9,192.2,829,192.3,829L192.3,829z"/>
			</g>
		</g>
		<g>
			<g>
				<path class="st7" d="M666.3,1013.3c0-0.2,0.1-0.5,0.1-0.7c0.1-0.7-0.9-0.6-0.8,0c0,0.2,0.1,0.5,0.1,0.7
					C665.8,1013.6,666.2,1013.6,666.3,1013.3c0-0.2,0.1-0.5,0.1-0.7c0.1-0.6-0.9-0.7-0.8,0c0,0.2,0.1,0.5,0.1,0.7
					C665.7,1013.6,666.2,1013.6,666.3,1013.3L666.3,1013.3z"/>
			</g>
		</g>
		<g>
			<g>
				<path class="st7" d="M661.6,1027.5c0.4-0.4,0.9-0.9,1.1-1.4c0-0.1-0.1-0.3-0.2-0.2c-0.6,0.2-1,0.7-1.4,1.1
					C660.6,1027.3,661.2,1027.9,661.6,1027.5L661.6,1027.5z"/>
			</g>
		</g>
		<g>
			<g>
				<path class="st7" d="M678.8,1025.2c0.2,0,0.5,0,0.7,0c0.4,0,0.4-0.7-0.1-0.6c-0.2,0-0.5,0.1-0.7,0.1S678.5,1025.1,678.8,1025.2
					c0.1-0.1,0.4,0,0.6,0c0.4,0.1,0.5-0.6,0.1-0.6c-0.2,0-0.5,0-0.7,0C678.4,1024.6,678.4,1025.2,678.8,1025.2L678.8,1025.2z"/>
			</g>
		</g>
		<g>
			<g>
				<path class="st7" d="M660.3,1020.9c-0.5-0.2-0.7-1.3-0.1-1.5c0.3-0.1,0.2-0.5-0.1-0.5c-1.4,0.2-1.5,2.5,0,2.7
					C660.6,1021.7,660.8,1021,660.3,1020.9L660.3,1020.9z"/>
			</g>
		</g>
		<g>
			<g>
				<path class="st7" d="M669.4,1012.1c0.4,1.2,0.9,2.3,1.3,3.5c0.1,0.2,0.3,0.1,0.3-0.1c-0.3-1.2-0.7-2.4-1-3.5
					C669.9,1011.6,669.3,1011.7,669.4,1012.1L669.4,1012.1z"/>
			</g>
		</g>
		<g>
			<g>
				<path class="st7" d="M673.3,1030.8c-0.1-0.8-0.1-1.6-0.2-2.3c0-0.2-0.3-0.2-0.3,0c-0.1,0.8-0.1,1.6-0.2,2.3
					C672.6,1031.2,673.3,1031.2,673.3,1030.8L673.3,1030.8z"/>
			</g>
		</g>
		<g>
			<g>
				<path class="st7" d="M675.5,1015.4c-0.2-0.2-0.3-0.5-0.5-0.7s-0.5-0.3-0.7-0.5c-0.2-0.1-0.4,0.1-0.3,0.3
					c0.2,0.2,0.3,0.5,0.5,0.7s0.4,0.3,0.7,0.5C675.4,1016,675.7,1015.7,675.5,1015.4L675.5,1015.4z"/>
			</g>
		</g>
		<g>
			<g>
				<path class="st7" d="M667.1,1019.4c0.4,0,0.9,0.1,1.2-0.1c0.1-0.1,0.1-0.2,0-0.3c-0.4-0.2-0.8-0.1-1.2-0.1
					C666.8,1018.8,666.8,1019.4,667.1,1019.4L667.1,1019.4z"/>
			</g>
		</g>
		<g>
			<g>
				<path class="st7" d="M678.8,1015.8c0.3,0,0.3-0.5,0-0.5S678.5,1015.8,678.8,1015.8L678.8,1015.8z"/>
			</g>
		</g>
		<g>
			<g>
				<path class="st7" d="M668,1023.8c0,0.2,0,0.5,0,0.7c0,0.5,0.8,0.5,0.7-0.1c0-0.2-0.1-0.5-0.1-0.7
					C668.5,1023.4,668.1,1023.4,668,1023.8c0.1,0.2,0,0.4,0,0.6c-0.1,0.6,0.8,0.6,0.7,0.1c0-0.2,0-0.5,0-0.7
					C668.6,1023.3,668,1023.3,668,1023.8L668,1023.8z"/>
			</g>
		</g>
		<g>
			<g>
				<path class="st7" d="M680.1,1008.7c0.4-0.4,0.9-0.8,1.2-1.2c0.1-0.2-0.1-0.3-0.3-0.3c-0.5,0.2-0.9,0.8-1.2,1.2
					C679.6,1008.6,679.9,1008.9,680.1,1008.7L680.1,1008.7z"/>
			</g>
		</g>
		<g>
			<g>
				<path class="st7" d="M1041.7,690.6c0.7,0,0.7-1.1,0-1.1C1040.9,689.5,1040.9,690.6,1041.7,690.6L1041.7,690.6z"/>
			</g>
		</g>
		<g>
			<g>
				<path class="st7" d="M1044.1,679.5c-0.5,0.3-0.8,0.7-1.2,1.1c-0.4,0.4-0.7,0.9-1.1,1.3c-0.1,0.2,0.1,0.4,0.2,0.2
					c0.4-0.3,0.9-0.7,1.3-1c0.4-0.4,0.8-0.8,1.1-1.2C1044.5,679.7,1044.3,679.4,1044.1,679.5L1044.1,679.5z"/>
			</g>
		</g>
		<g>
			<g>
				<path class="st7" d="M1031.2,684c-0.2,0-0.5-0.1-0.7-0.1c-0.7-0.1-0.6,0.9,0,0.8c0.2-0.1,0.5-0.1,0.7-0.2
					C1031.5,684.4,1031.5,684.1,1031.2,684c-0.2,0-0.5-0.1-0.7-0.1c-0.6-0.1-0.7,0.9,0,0.8c0.2,0,0.5-0.1,0.7-0.1
					C1031.5,684.5,1031.5,684,1031.2,684L1031.2,684z"/>
			</g>
		</g>
		<g>
			<g>
				<path class="st7" d="M1037.3,677.3c0.1-0.4,0.6-0.7,0.9-0.4c0.4,0.2,0.2,0.9-0.2,1c-0.2,0.1-0.1,0.4,0.1,0.4
					c0.8-0.2,1.1-1.2,0.5-1.8c-0.7-0.6-1.7,0-1.7,0.8C1036.9,677.5,1037.3,677.5,1037.3,677.3L1037.3,677.3z"/>
			</g>
		</g>
		<g>
			<g>
				<path class="st7" d="M1039.1,691.5c0.4,0.4,0.8,1.3,1.5,1.2c0.1,0,0.2-0.1,0.2-0.2c0.1-0.7-0.7-1.1-1.2-1.5
					C1039.2,690.6,1038.7,691.1,1039.1,691.5L1039.1,691.5z"/>
			</g>
		</g>
		<g>
			<g>
				<path class="st7" d="M1042,690.2c0.4-1.2,0.8-2.3,1.1-3.5c0-0.2-0.2-0.3-0.3-0.1c-0.5,1.2-0.9,2.3-1.3,3.5
					C1041.3,690.4,1041.9,690.5,1042,690.2L1042,690.2z"/>
			</g>
		</g>
		<g>
			<g>
				<path class="st7" d="M1036.8,678.3c-0.4,0.8-0.7,1.6-1.1,2.4c-0.1,0.1,0.1,0.2,0.2,0.1c0.4-0.7,0.9-1.5,1.3-2.3
					C1037.4,678.2,1036.9,678,1036.8,678.3L1036.8,678.3z"/>
			</g>
		</g>
		<g>
			<g>
				<path class="st7" d="M1034.9,688c0.4-0.4,1-0.8,1.2-1.3c0.1-0.2-0.1-0.4-0.3-0.3c-0.5,0.2-0.9,0.8-1.3,1.2
					C1034.1,687.8,1034.6,688.3,1034.9,688L1034.9,688z"/>
			</g>
		</g>
		<g>
			<g>
				<path class="st7" d="M1035.5,685.4c0,0.4,0,0.8,0.2,1.2c0.1,0.2,0.3,0.2,0.4,0c0.1-0.4,0.1-0.8,0.2-1.2
					C1036.2,684.9,1035.4,684.9,1035.5,685.4L1035.5,685.4z"/>
			</g>
		</g>
		<g>
			<g>
				<path class="st7" d="M1034.7,691.4c0.4,0,0.8,0,1.2-0.1c0.1,0,0.1-0.2,0-0.2c-0.4-0.1-0.8,0-1.2-0.1
					C1034.5,691.1,1034.5,691.4,1034.7,691.4L1034.7,691.4z"/>
			</g>
		</g>
		<g>
			<g>
				<path class="st7" d="M1054.5,694c0.5,0,0.9,0,1.3-0.2c0.1-0.1,0.1-0.3,0-0.4c-0.4-0.2-0.8-0.2-1.3-0.2S1054,694,1054.5,694
					L1054.5,694z"/>
			</g>
		</g>
		<g>
			<g>
				<path class="st7" d="M1036.1,687.5c-0.4-0.4-0.8-1-1.3-1.2c-0.2-0.1-0.4,0.2-0.3,0.3c0.2,0.5,0.8,0.9,1.2,1.3
					C1035.9,688.3,1036.4,687.8,1036.1,687.5L1036.1,687.5z"/>
			</g>
		</g>
		<g>
			<g>
				<path class="st7" d="M1040.3,681.1c0.8,0.4,1.6,0.7,2.5,1c0.2,0.1,0.3-0.2,0.1-0.3c-0.7-0.5-1.5-0.9-2.2-1.4
					C1040.2,680.1,1039.8,680.9,1040.3,681.1L1040.3,681.1z"/>
			</g>
		</g>
		<g>
			<g>
				<path class="st7" d="M1047.3,690.3c0.3,0.4,0.8,0.7,1,1.2c0.3,0.5,1.1-0.2,0.5-0.5c-0.4-0.2-0.8-0.7-1.2-1
					C1047.4,689.6,1047.1,690,1047.3,690.3L1047.3,690.3z"/>
			</g>
		</g>
		<g>
			<g>
				<path class="st7" d="M1048.7,690.9c-1.2-0.1-2.3,0-3.5,0.1c-0.3,0-0.3,0.4,0,0.4c1.2,0.1,2.3,0.1,3.5,0.1
					C1049,691.5,1049,691,1048.7,690.9L1048.7,690.9z"/>
			</g>
		</g>
		<g>
			<g>
				<path class="st7" d="M1035.1,683.5c-1.6-0.8-3.1-1.7-4.8-2.2c-0.3-0.1-0.5,0.3-0.3,0.5c1.4,1.1,3,1.8,4.6,2.6
					C1035.2,684.7,1035.7,683.8,1035.1,683.5L1035.1,683.5z"/>
			</g>
		</g>
		<g>
			<g>
				<path class="st7" d="M921.5,267.4c-0.8,0-1.6,0.1-2.3,0.1c-0.2,0-0.2,0.3,0,0.3c0.8,0.1,1.5,0.1,2.3,0.1
					C921.9,268,921.9,267.4,921.5,267.4L921.5,267.4z"/>
			</g>
		</g>
		<g>
			<g>
				<path class="st7" d="M913.3,264.1c-0.4,0-0.8,0-1.2,0c-0.1,0-0.1,0.2,0,0.2c0.4,0,0.8,0,1.2,0
					C913.5,264.3,913.5,264.1,913.3,264.1L913.3,264.1z"/>
			</g>
		</g>
		<g>
			<g>
				<path class="st7" d="M911,260.7c0.1,0,0.1-0.1,0-0.1S910.9,260.7,911,260.7L911,260.7z"/>
			</g>
		</g>
		<g>
			<g>
				<path class="st7" d="M921.4,259.5c0,0.4,0,0.8,0,1.2c0,0.1,0.1,0.1,0.1,0C921.5,260.3,921.5,259.9,921.4,259.5L921.4,259.5
					L921.4,259.5z"/>
			</g>
		</g>
		<g>
			<g>
				<path class="st7" d="M920.3,272.7c0.4,0.1,0.6,0.6,0.5,1c0,0.1-0.1,0.3-0.2,0.4c-0.1,0.2-0.2,0.3-0.4,0.4s-0.2,0.3,0,0.3
					c0.3,0,0.5-0.2,0.7-0.4c0.2-0.2,0.2-0.4,0.2-0.8c0-0.6-0.3-1.2-0.9-1.3C920.1,272.3,920.1,272.6,920.3,272.7L920.3,272.7z"/>
			</g>
		</g>
		<g>
			<g>
				<path class="st7" d="M914.7,271c-0.4-0.4-0.8-0.9-1.3-1.1c-0.2-0.1-0.4,0.1-0.3,0.3c0.3,0.5,0.8,0.9,1.1,1.3
					C914.5,271.7,915,271.3,914.7,271L914.7,271z"/>
			</g>
		</g>
		<g>
			<g>
				<path class="st7" d="M911.1,264.3c0.4-0.4,0.8-0.8,1.2-1.2c0.4-0.4,0.9-0.7,1.1-1.2c0.1-0.2-0.1-0.3-0.2-0.2
					c-0.5,0.2-0.8,0.7-1.2,1.1s-0.8,0.8-1.2,1.2C910.6,264.2,910.9,264.5,911.1,264.3L911.1,264.3z"/>
			</g>
		</g>
		<g>
			<g>
				<path class="st7" d="M916.9,258.3c0.3,0.8,0.7,1.7,1.2,2.4c0.1,0.2,0.4,0.1,0.4-0.2c-0.2-0.8-0.6-1.7-1-2.5
					C917.3,257.8,916.8,258,916.9,258.3L916.9,258.3z"/>
			</g>
		</g>
		<g>
			<g>
				<path class="st7" d="M923.8,267.8c0.1,0,0.1-0.1,0-0.1C923.7,267.6,923.7,267.8,923.8,267.8L923.8,267.8z"/>
			</g>
		</g>
		<g>
			<g>
				<path class="st7" d="M923.7,272.2c-0.4,0.4-0.9,0.7-1.2,1.2c-0.1,0.1,0.1,0.2,0.2,0.2c0.5-0.2,0.9-0.8,1.2-1.2
					C924.1,272.3,923.9,272.1,923.7,272.2L923.7,272.2z"/>
			</g>
		</g>
		<g>
			<g>
				<path class="st7" d="M918,273.3c-0.8,0-1.6,0-2.4,0.1c-0.1,0-0.1,0.2,0,0.3c0.8,0.1,1.6,0.1,2.4,0.1
					C918.3,273.8,918.3,273.3,918,273.3L918,273.3z"/>
			</g>
		</g>
		<g>
			<g>
				<path class="st7" d="M913.7,264.2c0-0.4,0.1-0.9-0.1-1.2c-0.1-0.3-0.4-0.3-0.5,0c-0.1,0.4-0.1,0.8-0.1,1.2
					C913,264.7,913.7,264.7,913.7,264.2L913.7,264.2z"/>
			</g>
		</g>
		<g>
			<g>
				<path class="st7" d="M926.1,261.9c0,0.4,0,0.8,0,1.2c0,0.1,0.2,0.1,0.2,0c0-0.4,0-0.8,0-1.2
					C926.3,261.7,926.1,261.7,926.1,261.9L926.1,261.9z"/>
			</g>
		</g>
		<g>
			<g>
				<path class="st7" d="M926.2,268.9C926.2,268.9,926.2,268.8,926.2,268.9C926.1,268.8,926.1,268.9,926.2,268.9L926.2,268.9z"/>
			</g>
		</g>
		<g>
			<g>
				<path class="st7" d="M910,268.7c-0.3-0.4-0.8-1.1-1.3-1.2c-0.1,0-0.2,0.1-0.2,0.2c0,0.3,0.1,0.4,0.4,0.6
					c0.3,0.2,0.5,0.5,0.8,0.7C909.9,269.2,910.2,268.9,910,268.7L910,268.7z"/>
			</g>
		</g>
	</g>
</g>
</svg>
